# Blender 4.3.2
# www.blender.org
o FaceEyelash
v -0.056243 1.541569 0.058983
v -0.052216 1.542942 0.060691
v -0.059068 1.545852 0.059595
v -0.053526 1.546999 0.062345
v -0.046445 1.544744 0.063073
v -0.047110 1.547726 0.064780
v -0.032505 1.543456 0.064344
v -0.032308 1.546328 0.067199
v -0.025877 1.540584 0.062892
v -0.025543 1.544166 0.066338
v -0.022942 1.538567 0.061830
v -0.022821 1.540475 0.064485
v -0.020628 1.532990 0.059145
v -0.020671 1.536064 0.061862
v -0.017933 1.539901 0.068277
v -0.058587 1.539918 0.057619
v -0.061418 1.542619 0.057720
v -0.061805 1.536374 0.054025
v -0.065705 1.538387 0.051455
v -0.061045 1.534473 0.053921
v -0.065555 1.533860 0.050144
v -0.058963 1.530109 0.053687
v -0.061846 1.529802 0.051793
v -0.067746 1.544071 0.055840
v -0.053911 1.525788 0.058023
v -0.055635 1.524153 0.058402
v -0.053229 1.525427 0.058644
v -0.053444 1.523351 0.058873
v -0.050037 1.524323 0.059284
v -0.050732 1.522578 0.059477
v -0.047666 1.523637 0.059827
v -0.048542 1.522058 0.059974
v -0.041643 1.521980 0.061253
v -0.041853 1.520432 0.062107
v -0.030916 1.523340 0.061385
v -0.030967 1.521605 0.062408
v -0.029049 1.523580 0.061367
v -0.028128 1.522080 0.062470
v -0.021396 1.529021 0.059935
v -0.029732 1.520058 0.063187
v -0.052159 1.520440 0.059636
v -0.057088 1.521695 0.057358
v -0.071584 1.535264 0.046660
v -0.059660 1.538737 0.056421
v -0.063038 1.541020 0.055353
v -0.067522 1.541172 0.053024
v 0.056243 1.541569 0.058983
v 0.052216 1.542943 0.060691
v 0.059068 1.545852 0.059595
v 0.053525 1.546999 0.062345
v 0.046445 1.544744 0.063073
v 0.047110 1.547727 0.064780
v 0.032504 1.543456 0.064344
v 0.032308 1.546328 0.067199
v 0.025877 1.540584 0.062892
v 0.025543 1.544166 0.066338
v 0.022942 1.538567 0.061830
v 0.022821 1.540475 0.064485
v 0.020628 1.532990 0.059145
v 0.020671 1.536064 0.061862
v 0.017933 1.539901 0.068277
v 0.058587 1.539918 0.057619
v 0.061418 1.542619 0.057720
v 0.061805 1.536375 0.054025
v 0.065705 1.538387 0.051455
v 0.061045 1.534473 0.053921
v 0.065555 1.533860 0.050144
v 0.058963 1.530110 0.053687
v 0.061846 1.529802 0.051793
v 0.067746 1.544072 0.055840
v 0.053911 1.525788 0.058023
v 0.055635 1.524154 0.058402
v 0.053229 1.525427 0.058644
v 0.053444 1.523351 0.058873
v 0.050037 1.524323 0.059284
v 0.050732 1.522578 0.059477
v 0.047666 1.523637 0.059827
v 0.048542 1.522058 0.059974
v 0.041643 1.521981 0.061253
v 0.041853 1.520432 0.062107
v 0.030916 1.523340 0.061385
v 0.030967 1.521605 0.062408
v 0.029049 1.523580 0.061367
v 0.028128 1.522080 0.062470
v 0.021396 1.529021 0.059935
v 0.029732 1.520058 0.063187
v 0.052159 1.520440 0.059636
v 0.057088 1.521695 0.057358
v 0.071584 1.535264 0.046660
v 0.059660 1.538737 0.056421
v 0.063038 1.541020 0.055353
v 0.067522 1.541172 0.053024
vn -0.3037 -0.3871 0.8706
vn -0.2376 -0.4721 0.8489
vn -0.1567 -0.6148 0.7730
vn -0.1346 -0.6865 0.7146
vn -0.3576 -0.6808 0.6393
vn -0.6300 -0.5648 0.5330
vn -0.5094 -0.6555 0.5575
vn -0.2858 -0.3236 0.9020
vn -0.4902 -0.4681 0.7353
vn -0.6094 -0.2518 0.7518
vn -0.5674 -0.2588 0.7817
vn -0.3319 -0.2810 0.9005
vn -0.4334 0.3980 0.8085
vn -0.2407 0.2784 0.9298
vn -0.1592 0.1460 0.9764
vn -0.1731 0.1809 0.9681
vn -0.1667 0.3526 0.9208
vn -0.0758 0.4995 0.8630
vn -0.0886 0.5303 0.8432
vn -0.1970 0.4993 0.8437
vn -0.0858 0.3928 0.9156
vn -0.1746 0.1887 0.9664
vn -0.2837 -0.2280 0.9314
vn -0.5275 -0.2525 0.8112
vn -0.3752 -0.6285 0.6813
vn -0.5790 -0.3624 0.7304
vn 0.3037 -0.3871 0.8706
vn 0.2376 -0.4721 0.8489
vn 0.1567 -0.6148 0.7730
vn 0.1346 -0.6865 0.7146
vn 0.3576 -0.6808 0.6393
vn 0.6300 -0.5648 0.5330
vn 0.5094 -0.6555 0.5575
vn 0.2858 -0.3236 0.9020
vn 0.4902 -0.4681 0.7353
vn 0.6094 -0.2518 0.7518
vn 0.5674 -0.2588 0.7817
vn 0.3319 -0.2810 0.9005
vn 0.4334 0.3980 0.8085
vn 0.2407 0.2784 0.9298
vn 0.1592 0.1460 0.9764
vn 0.1731 0.1809 0.9681
vn 0.1667 0.3526 0.9208
vn 0.0758 0.4995 0.8630
vn 0.0886 0.5303 0.8432
vn 0.1970 0.4993 0.8437
vn 0.0858 0.3928 0.9156
vn 0.1746 0.1887 0.9664
vn 0.2837 -0.2280 0.9314
vn 0.5275 -0.2525 0.8112
vn 0.3752 -0.6285 0.6813
vn 0.5790 -0.3624 0.7304
vt 0.000000 0.000000
vt 1.000000 0.000000
vt 1.000000 1.000000
vt 0.000000 1.000000
s 0
f 1/1/1 2/2/1 4/3/1 3/4/1
f 4/3/2 2/2/2 5/2/2 6/3/2
f 6/3/3 5/2/3 7/2/3 8/3/3
f 8/3/4 7/2/4 9/2/4 10/3/4
f 10/3/5 9/2/5 11/2/5 12/3/5
f 12/3/6 11/2/6 13/2/6 14/3/6
f 10/3/7 12/3/7 15/1/7
f 1/1/8 3/4/8 17/4/8 16/1/8
f 16/1/9 17/4/9 45/4/9 44/1/9
f 18/1/10 19/4/10 21/4/10 20/1/10
f 20/1/11 21/4/11 23/4/11 22/1/11
f 17/4/12 3/4/12 24/1/12
f 22/1/13 23/4/13 26/4/13 25/1/13
f 25/1/14 26/4/14 28/4/14 27/1/14
f 27/1/15 28/4/15 30/4/15 29/1/15
f 29/1/16 30/4/16 32/4/16 31/1/16
f 31/1/17 32/4/17 34/4/17 33/1/17
f 33/1/18 34/4/18 36/4/18 35/1/18
f 35/1/19 36/4/19 38/4/19 37/1/19
f 37/1/20 38/4/20 39/1/20
f 38/4/21 36/4/21 40/1/21
f 32/4/22 30/4/22 41/1/22
f 28/4/23 26/4/23 42/1/23
f 21/4/24 19/4/24 43/1/24
f 45/4/25 17/4/25 46/1/25
f 44/1/26 45/4/26 19/4/26 18/1/26
f 47/1/27 49/4/27 50/3/27 48/2/27
f 50/3/28 52/3/28 51/2/28 48/2/28
f 52/3/29 54/3/29 53/2/29 51/2/29
f 54/3/30 56/3/30 55/2/30 53/2/30
f 56/3/31 58/3/31 57/2/31 55/2/31
f 58/3/32 60/3/32 59/2/32 57/2/32
f 56/3/33 61/1/33 58/3/33
f 47/1/34 62/1/34 63/4/34 49/4/34
f 62/1/35 90/1/35 91/4/35 63/4/35
f 64/1/36 66/1/36 67/4/36 65/4/36
f 66/1/37 68/1/37 69/4/37 67/4/37
f 63/4/38 70/1/38 49/4/38
f 68/1/39 71/1/39 72/4/39 69/4/39
f 71/1/40 73/1/40 74/4/40 72/4/40
f 73/1/41 75/1/41 76/4/41 74/4/41
f 75/1/42 77/1/42 78/4/42 76/4/42
f 77/1/43 79/1/43 80/4/43 78/4/43
f 79/1/44 81/1/44 82/4/44 80/4/44
f 81/1/45 83/1/45 84/4/45 82/4/45
f 83/1/46 85/1/46 84/4/46
f 84/4/47 86/1/47 82/4/47
f 78/4/48 87/1/48 76/4/48
f 74/4/49 88/1/49 72/4/49
f 67/4/50 89/1/50 65/4/50
f 91/4/51 92/1/51 63/4/51
f 90/1/52 64/1/52 65/4/52 91/4/52
