# Blender 4.3.2
# www.blender.org
o ClothesIce
v 0.114050 1.265931 -0.205652
v 0.239388 1.327716 -0.184779
v 0.246180 1.246452 -0.297047
v 0.228184 1.248662 -0.126860
v 0.217330 1.172550 -0.230224
v 0.639072 1.188131 -0.203391
v 0.094614 1.421371 -0.205858
v 0.168748 1.525020 -0.186823
v 0.209210 1.462626 -0.289204
v 0.193794 1.456652 -0.134005
v 0.217853 1.390797 -0.228266
v 0.550138 1.584982 -0.203796
v 0.110118 1.151181 -0.206452
v 0.201886 1.145636 -0.192720
v 0.179280 1.096981 -0.266582
v 0.169716 1.104110 -0.154614
v 0.138704 1.064150 -0.222618
v 0.384805 0.935587 -0.204965
v -0.114050 1.265931 -0.205652
v -0.239388 1.327716 -0.184779
v -0.246179 1.246452 -0.297047
v -0.228184 1.248662 -0.126860
v -0.217330 1.172550 -0.230224
v -0.639072 1.188131 -0.203391
v -0.094614 1.421371 -0.205858
v -0.168748 1.525020 -0.186823
v -0.209210 1.462626 -0.289204
v -0.193794 1.456652 -0.134005
v -0.217853 1.390797 -0.228266
v -0.550138 1.584982 -0.203796
v -0.110118 1.151181 -0.206452
v -0.201886 1.145636 -0.192720
v -0.179280 1.096981 -0.266582
v -0.169716 1.104110 -0.154614
v -0.138704 1.064150 -0.222618
v -0.384805 0.935587 -0.204965
vn -0.2834 0.7686 -0.5735
vn 0.0715 -0.6842 -0.7258
vn -0.0080 -0.8048 0.5935
vn -0.4029 0.5774 0.7101
vn -0.6775 -0.7329 -0.0621
vn 0.2306 0.5536 0.8002
vn 0.2504 0.7914 -0.5577
vn -0.6128 0.5436 -0.5735
vn 0.3861 -0.5693 -0.7258
vn 0.3731 -0.7132 0.5935
vn -0.6278 0.3186 0.7101
vn -0.2509 -0.9660 -0.0621
vn -0.0582 0.5969 0.8002
vn -0.1531 0.8158 -0.5577
vn 0.1346 0.8081 -0.5735
vn -0.2769 -0.6297 -0.7258
vn -0.4057 -0.6951 0.5935
vn -0.0639 0.7011 0.7101
vn -0.9516 -0.3010 -0.0621
vn 0.4746 0.3666 0.8002
vn 0.6096 0.5634 -0.5577
vn 0.2834 0.7686 -0.5735
vn -0.0715 -0.6842 -0.7258
vn 0.0080 -0.8048 0.5935
vn 0.4029 0.5774 0.7101
vn 0.6775 -0.7329 -0.0621
vn -0.2306 0.5536 0.8002
vn -0.2504 0.7914 -0.5577
vn 0.6128 0.5436 -0.5735
vn -0.3861 -0.5693 -0.7258
vn -0.3731 -0.7132 0.5935
vn 0.6278 0.3186 0.7101
vn 0.2509 -0.9660 -0.0621
vn 0.0582 0.5969 0.8002
vn 0.1531 0.8158 -0.5577
vn -0.1346 0.8081 -0.5735
vn 0.2769 -0.6297 -0.7258
vn 0.4057 -0.6951 0.5935
vn 0.0639 0.7011 0.7101
vn 0.9516 -0.3010 -0.0621
vn -0.4746 0.3666 0.8002
vn -0.6096 0.5634 -0.5577
vt 0.375000 0.000000
vt 0.625000 0.250000
vt 0.375000 0.250000
vt 0.375000 0.500000
vt 0.125000 0.500000
vt 0.625000 0.500000
vt 0.375000 0.750000
vt 0.625000 0.750000
vt 0.625000 1.000000
vt 0.375000 1.000000
vt 0.125000 0.750000
vt 0.875000 0.750000
s 0
f 1/1/1 2/2/1 3/3/1
f 5/4/2 3/5/2 6/6/2
f 5/4/3 6/6/3 4/7/3
f 4/8/4 2/9/4 1/10/4
f 3/5/5 5/4/5 4/7/5 1/11/5
f 6/6/6 2/12/6 4/8/6
f 3/3/7 2/2/7 6/6/7
f 7/1/8 8/2/8 9/3/8
f 11/4/9 9/5/9 12/6/9
f 11/4/10 12/6/10 10/7/10
f 10/8/11 8/9/11 7/10/11
f 9/5/12 11/4/12 10/7/12 7/11/12
f 12/6/13 8/12/13 10/8/13
f 9/3/14 8/2/14 12/6/14
f 13/1/15 14/2/15 15/3/15
f 17/4/16 15/5/16 18/6/16
f 17/4/17 18/6/17 16/7/17
f 16/8/18 14/9/18 13/10/18
f 15/5/19 17/4/19 16/7/19 13/11/19
f 18/6/20 14/12/20 16/8/20
f 15/3/21 14/2/21 18/6/21
f 19/1/22 21/3/22 20/2/22
f 23/4/23 24/6/23 21/5/23
f 23/4/24 22/7/24 24/6/24
f 22/8/25 19/10/25 20/9/25
f 21/5/26 19/11/26 22/7/26 23/4/26
f 24/6/27 22/8/27 20/12/27
f 21/3/28 24/6/28 20/2/28
f 25/1/29 27/3/29 26/2/29
f 29/4/30 30/6/30 27/5/30
f 29/4/31 28/7/31 30/6/31
f 28/8/32 25/10/32 26/9/32
f 27/5/33 25/11/33 28/7/33 29/4/33
f 30/6/34 28/8/34 26/12/34
f 27/3/35 30/6/35 26/2/35
f 31/1/36 33/3/36 32/2/36
f 35/4/37 36/6/37 33/5/37
f 35/4/38 34/7/38 36/6/38
f 34/8/39 31/10/39 32/9/39
f 33/5/40 31/11/40 34/7/40 35/4/40
f 36/6/41 34/8/41 32/12/41
f 33/3/42 36/6/42 32/2/42
