# Blender 4.3.2
# www.blender.org
o ClothesBowHair
v -0.000047 1.625951 -0.139205
v 0.044808 1.627386 -0.143644
v -0.000047 1.699024 -0.129208
v 0.037636 1.695677 -0.129208
v 0.098837 1.612902 -0.143644
v 0.091275 1.722155 -0.124371
v 0.131601 1.615255 -0.143139
v 0.154107 1.743487 -0.124792
v -0.000047 1.662488 -0.130209
v 0.047676 1.654359 -0.138204
v 0.100042 1.650333 -0.127247
v 0.146792 1.654836 -0.130454
v 0.042417 1.678365 -0.135484
v 0.090058 1.680293 -0.131857
v 0.141365 1.694380 -0.129505
v -0.000047 1.680756 -0.127489
v 0.080920 1.599728 -0.162580
v 0.093694 1.628739 -0.155751
v 0.097835 1.660838 -0.152177
v 0.113059 1.547503 -0.183042
v 0.121042 1.599005 -0.173792
v 0.148725 1.624907 -0.169655
v 0.000047 1.625951 -0.139205
v -0.044808 1.627386 -0.143644
v 0.000047 1.699024 -0.129208
v -0.037636 1.695677 -0.129208
v -0.098837 1.612902 -0.143644
v -0.091275 1.722155 -0.124371
v -0.131600 1.615255 -0.143139
v -0.154107 1.743487 -0.124792
v 0.000047 1.662488 -0.130209
v -0.047676 1.654359 -0.138204
v -0.100042 1.650333 -0.127247
v -0.146792 1.654836 -0.130454
v -0.042417 1.678365 -0.135484
v -0.090058 1.680293 -0.131857
v -0.141365 1.694380 -0.129505
v 0.000047 1.680756 -0.127489
v -0.080920 1.599728 -0.162580
v -0.093694 1.628739 -0.155751
v -0.097835 1.660838 -0.152177
v -0.113059 1.547503 -0.183042
v -0.121042 1.599005 -0.173792
v -0.148725 1.624907 -0.169655
vn 0.1137 -0.2251 0.9677
vn 0.0812 -0.2712 0.9591
vn 0.0905 -0.1146 0.9893
vn 0.0434 -0.1644 0.9854
vn -0.0430 -0.3389 0.9398
vn 0.0087 -0.1727 0.9849
vn 0.0630 -0.3643 0.9292
vn 0.0257 -0.1367 0.9903
vn 0.1401 -0.1606 0.9770
vn 0.0810 -0.1650 0.9830
vn -0.0465 -0.1621 0.9857
vn 0.0263 -0.1250 0.9918
vn 0.0677 -0.1216 0.9903
vn -0.0457 -0.0803 0.9957
vn 0.0143 -0.0563 0.9983
vn 0.1252 -0.1105 0.9860
vn 0.2482 -0.2609 0.9329
vn 0.2464 -0.2223 0.9433
vn 0.2544 -0.1659 0.9528
vn 0.2562 -0.2524 0.9331
vn 0.2395 -0.2498 0.9382
vn 0.2212 -0.2468 0.9435
vn -0.1137 -0.2251 0.9677
vn -0.0812 -0.2712 0.9591
vn -0.0905 -0.1146 0.9893
vn -0.0434 -0.1644 0.9854
vn 0.0430 -0.3389 0.9398
vn -0.0087 -0.1727 0.9849
vn -0.0630 -0.3643 0.9292
vn -0.0257 -0.1367 0.9903
vn -0.1401 -0.1606 0.9770
vn -0.0810 -0.1650 0.9830
vn 0.0465 -0.1621 0.9857
vn -0.0263 -0.1250 0.9918
vn -0.0677 -0.1216 0.9903
vn 0.0457 -0.0803 0.9957
vn -0.0143 -0.0563 0.9983
vn -0.1252 -0.1105 0.9860
vn -0.2482 -0.2609 0.9329
vn -0.2464 -0.2223 0.9433
vn -0.2544 -0.1659 0.9528
vn -0.2562 -0.2524 0.9331
vn -0.2395 -0.2498 0.9382
vn -0.2212 -0.2468 0.9435
vt 0.000000 0.750000
vt 1.000000 0.750000
vt 1.000000 1.000000
vt 0.000000 1.000000
vt 1.000000 0.500000
vt 1.000000 0.000000
vt 1.000000 0.500000
vt 1.000000 0.750000
vt 0.000000 0.000000
vt 0.000000 0.500000
s 1
f 16/1/16 13/2/13 4/3/4 3/4/3
f 10/5/10 2/6/2 5/6/5 11/7/11
f 11/7/11 5/6/5 7/6/7 12/5/12
f 14/8/14 11/7/11 12/5/12 15/2/15
f 13/2/13 10/5/10 11/7/11 14/8/14
f 1/9/1 2/6/2 10/5/10 9/10/9
f 4/3/4 13/2/13 14/8/14 6/3/6
f 6/3/6 14/8/14 15/2/15 8/3/8
f 9/10/9 10/5/10 13/2/13 16/1/16
f 10/5/10 18/5/18 19/2/19 13/2/13
f 10/5/10 2/6/2 17/6/17 18/5/18
f 18/5/18 21/5/21 22/2/22 19/2/19
f 18/5/18 17/6/17 20/6/20 21/5/21
f 38/1/38 25/4/25 26/3/26 35/2/35
f 32/5/32 33/7/33 27/6/27 24/6/24
f 33/7/33 34/5/34 29/6/29 27/6/27
f 36/8/36 37/2/37 34/5/34 33/7/33
f 35/2/35 36/8/36 33/7/33 32/5/32
f 23/9/23 31/10/31 32/5/32 24/6/24
f 26/3/26 28/3/28 36/8/36 35/2/35
f 28/3/28 30/3/30 37/2/37 36/8/36
f 31/10/31 38/1/38 35/2/35 32/5/32
f 32/5/32 35/2/35 41/2/41 40/5/40
f 32/5/32 40/5/40 39/6/39 24/6/24
f 40/5/40 41/2/41 44/2/44 43/5/43
f 40/5/40 43/5/43 42/6/42 39/6/39
