# Blender 4.3.2
# www.blender.org
o ClothesBow
v 0.001520 1.382995 0.023835
v 0.017838 1.388624 0.024205
v 0.000053 1.399138 0.015450
v 0.014962 1.403731 0.013948
v 0.005729 1.363845 0.037421
v 0.031946 1.372832 0.034726
v 0.012677 1.347765 0.054831
v 0.047807 1.364226 0.043906
v -0.000085 1.414632 0.009379
v 0.012577 1.414980 0.008448
v 0.030306 1.412015 0.006994
v 0.021826 1.420566 0.005142
v -0.001520 1.382995 0.023835
v -0.017838 1.388624 0.024205
v -0.000053 1.399138 0.015450
v -0.014962 1.403731 0.013948
v -0.005729 1.363845 0.037421
v -0.031946 1.372832 0.034726
v -0.012677 1.347765 0.054831
v -0.047807 1.364226 0.043906
v 0.000085 1.414632 0.009379
v -0.012577 1.414980 0.008448
v -0.030306 1.412015 0.006994
v -0.021826 1.420566 0.005142
vn -0.1307 0.4945 0.8593
vn -0.1309 0.5156 0.8468
vn -0.1183 0.6750 0.7282
vn 0.0096 0.3978 0.9174
vn 0.1428 0.4124 0.8997
vn 0.1307 0.4945 0.8593
vn 0.1309 0.5156 0.8468
vn 0.1183 0.6750 0.7282
vn -0.0096 0.3978 0.9174
vn -0.1428 0.4124 0.8997
vt 0.000000 0.000000
vt 1.000000 0.000000
vt 1.000000 1.000000
vt 0.000000 1.000000
s 0
f 1/1/1 2/2/1 4/3/1 3/4/1
f 2/2/2 1/1/2 5/1/2 6/2/2
f 6/2/3 5/1/3 7/1/3 8/2/3
f 3/4/4 4/3/4 10/3/4 9/4/4
f 10/3/5 4/3/5 11/3/5 12/3/5
f 13/1/6 15/4/6 16/3/6 14/2/6
f 14/2/7 18/2/7 17/1/7 13/1/7
f 18/2/8 20/2/8 19/1/8 17/1/8
f 15/4/9 21/4/9 22/3/9 16/3/9
f 22/3/10 24/3/10 23/3/10 16/3/10
