# Blender 4.3.2
# www.blender.org
o Hair
v -0.023661 1.630662 0.104269
v 0.022977 1.629270 0.104792
v -0.023866 1.565113 0.104914
v 0.028813 1.565119 0.104914
v -0.011991 1.538756 0.096507
v 0.020483 1.534776 0.095095
v 0.004404 1.520378 0.093874
v 0.016816 1.507471 0.086484
v 0.028693 1.595167 0.105514
v -0.026839 1.595166 0.108083
v 0.042340 1.654692 0.085411
v 0.050676 1.670391 0.052338
v 0.074031 1.625638 0.084239
v 0.092658 1.636918 0.045046
v 0.092783 1.577794 0.065799
v 0.100283 1.589694 0.030388
v 0.090537 1.534105 0.041766
v 0.101779 1.563910 0.031101
v -0.049077 1.654623 0.088005
v -0.048459 1.675525 0.056193
v -0.076627 1.624667 0.084692
v -0.089011 1.640007 0.047422
v -0.093004 1.581398 0.076352
v -0.100120 1.595476 0.043124
v -0.092139 1.536706 0.054177
v -0.103798 1.562688 0.043870
v -0.041267 1.636637 0.097219
v 0.040171 1.634429 0.097644
v -0.061679 1.596954 0.098676
v -0.088173 1.578889 0.082432
v -0.077453 1.571884 0.095845
v -0.089443 1.556204 0.081377
v -0.086997 1.535562 0.082306
v 0.054642 1.605261 0.096819
v 0.088001 1.576131 0.077433
v 0.071817 1.567303 0.089800
v 0.085741 1.553592 0.082758
v 0.074969 1.536236 0.087808
v 0.047613 1.568608 0.106942
v 0.061400 1.574561 0.098804
v 0.057851 1.555488 0.103519
v 0.072664 1.546506 0.096554
v -0.041959 1.567833 0.106225
v -0.066259 1.571704 0.100095
v -0.056105 1.556160 0.103210
v -0.070714 1.545630 0.096374
v 0.019492 1.561193 -0.143476
v 0.053651 1.691887 0.018286
v 0.091421 1.656455 0.010567
v -0.051287 1.692280 0.022367
v -0.083221 1.659725 0.013082
v 0.098403 1.593230 -0.005983
v -0.101539 1.594892 0.005992
v 0.092413 1.556474 0.025040
v 0.089550 1.547187 0.000449
v 0.085052 1.533128 0.021735
v 0.085080 1.508074 0.012501
v -0.097175 1.552036 0.035222
v -0.095859 1.539747 0.010033
v -0.094067 1.531945 0.025114
v -0.096259 1.511732 0.011203
v 0.058498 1.696502 -0.017751
v 0.098805 1.658690 -0.025988
v -0.053489 1.696921 -0.017022
v -0.087567 1.662179 -0.023304
v 0.111378 1.591218 -0.043650
v -0.112845 1.597136 -0.035129
v 0.093829 1.533641 -0.033437
v -0.094440 1.533020 -0.030534
v 0.050892 1.698307 -0.072414
v 0.086282 1.665107 -0.079646
v -0.047432 1.698675 -0.068590
v -0.077354 1.668171 -0.075735
v 0.097321 1.605867 -0.095153
v -0.099547 1.608719 -0.090456
v 0.096601 1.549927 -0.096421
v -0.101751 1.547971 -0.092752
v 0.061207 1.643510 -0.125596
v -0.057539 1.645733 -0.123886
v 0.069218 1.614310 -0.133567
v -0.073644 1.615440 -0.123517
v -0.041182 1.676703 -0.111994
v 0.042994 1.672383 -0.118489
v 0.090030 1.514174 -0.031239
v -0.090642 1.512909 -0.024515
v 0.091296 1.524729 -0.094876
v -0.096445 1.523518 -0.091131
v 0.064514 1.554947 -0.125100
v -0.071107 1.557240 -0.125309
v 0.064514 1.526636 -0.125100
v -0.071107 1.528930 -0.125309
v -0.023747 1.450579 -0.140950
v 0.025159 1.451090 -0.143476
v 0.095202 1.446458 -0.070262
v -0.100339 1.443379 -0.063552
v 0.083442 1.461185 -0.094876
v -0.088680 1.459974 -0.091131
v 0.074452 1.444478 -0.116077
v -0.081084 1.446788 -0.115374
v -0.095030 1.492075 -0.085170
v -0.095352 1.458962 -0.023035
v 0.064514 1.493690 -0.125100
v 0.019492 1.500721 -0.143476
v -0.018063 1.500210 -0.140950
v -0.071107 1.495984 -0.125309
v 0.088641 1.491783 -0.089620
v 0.091309 1.462041 -0.029745
v 0.098146 1.430410 -0.042806
v -0.102114 1.427456 -0.036353
v -0.098672 1.413949 -0.004061
v 0.093877 1.414804 -0.011008
v 0.082179 1.473407 -0.010009
v -0.084707 1.470566 0.000792
v -0.082719 1.418636 0.015884
v 0.077924 1.421071 0.010576
v -0.000855 1.664419 0.089745
v 0.000715 1.676841 0.055687
v -0.000323 1.631370 0.110689
v 0.002633 1.563288 0.116992
v 0.004493 1.533525 0.107425
v 0.011384 1.513556 0.091312
v 0.001009 1.594836 0.120318
v 0.000197 1.699118 0.024085
v 0.000974 1.709997 -0.016324
v 0.000715 1.707925 -0.069684
v 0.000715 1.680467 -0.114756
v 0.001879 1.637412 -0.139281
v 0.002217 1.561891 -0.141833
v 0.000715 1.536560 -0.139125
v 0.002289 1.594229 -0.144710
v 0.000715 1.469868 -0.138215
v 0.000715 1.500466 -0.139125
v -0.033261 1.676055 0.056571
v -0.033570 1.660519 0.089136
v -0.034414 1.632886 0.104725
v -0.046209 1.595296 0.110170
v -0.054109 1.569768 0.104950
v -0.063410 1.550895 0.100912
v -0.035193 1.695571 0.023339
v -0.035517 1.703331 -0.016819
v -0.032748 1.703172 -0.069542
v -0.029622 1.678458 -0.112743
v -0.037219 1.641445 -0.130952
v -0.045051 1.604606 -0.133311
v -0.043819 1.559337 -0.135145
v -0.044585 1.532617 -0.130619
v -0.044585 1.467499 -0.129339
v -0.044585 1.498097 -0.129084
v 0.029353 1.661157 0.086645
v 0.035084 1.673744 0.053381
v 0.032820 1.631208 0.105102
v 0.044967 1.598341 0.110474
v 0.056560 1.570354 0.105708
v 0.065258 1.550997 0.101229
v 0.036572 1.695630 0.021073
v 0.038995 1.703377 -0.016891
v 0.035192 1.703244 -0.070644
v 0.031243 1.676553 -0.117254
v 0.040932 1.640589 -0.133070
v 0.045128 1.604498 -0.139941
v 0.042739 1.558647 -0.136645
v 0.042003 1.531726 -0.131777
v 0.042003 1.466608 -0.130497
v 0.042003 1.497206 -0.130242
v -0.047123 1.646764 0.094347
v 0.042502 1.645816 0.093166
v -0.075172 1.609246 0.094256
v -0.084138 1.575387 0.089139
v -0.089137 1.545883 0.081841
v 0.071544 1.612423 0.094115
v 0.082966 1.569515 0.085158
v 0.083412 1.542713 0.086825
v 0.046508 1.664439 0.068875
v 0.089513 1.630124 0.065261
v 0.101818 1.583744 0.048093
v 0.099554 1.549008 0.036433
v -0.048768 1.666971 0.072099
v -0.089032 1.631536 0.066894
v -0.102624 1.588437 0.059738
v -0.101284 1.549697 0.049023
v 0.000461 1.671535 0.073260
v -0.032888 1.669789 0.073733
v 0.032746 1.668953 0.070893
v -0.049873 1.683902 0.039280
v -0.088260 1.649866 0.030252
v 0.094300 1.646686 0.027807
v 0.052163 1.681139 0.035312
v 0.105868 1.591462 0.012202
v -0.107228 1.595184 0.024558
v 0.096560 1.555048 0.012793
v 0.084945 1.520601 0.017118
v -0.102078 1.549063 0.022903
v -0.094863 1.521842 0.018283
v 0.000456 1.687979 0.039886
v -0.034227 1.685813 0.039955
v 0.035828 1.684687 0.037227
v 0.098826 1.547309 -0.023059
v 0.107437 1.592188 -0.025488
v -0.052427 1.694683 0.001970
v -0.085472 1.660996 -0.005760
v -0.109982 1.596054 -0.015302
v -0.102683 1.548819 -0.014396
v 0.095245 1.657612 -0.008362
v 0.056161 1.694277 -0.000375
v 0.000599 1.704751 0.003160
v -0.035360 1.699590 0.002544
v 0.037827 1.699642 0.001413
v 0.092812 1.518971 -0.060160
v 0.096804 1.486110 -0.030435
v 0.097254 1.541570 -0.064103
v -0.097862 1.540018 -0.062106
v -0.099097 1.478608 -0.025253
v -0.093522 1.518174 -0.059896
v -0.103940 1.452052 -0.041003
v 0.099145 1.454929 -0.048236
v -0.020748 1.559135 -0.142341
vn -0.0935 0.3173 0.9437
vn 0.0927 0.3101 0.9462
vn -0.4460 -0.2341 0.8638
vn 0.4733 -0.1716 0.8640
vn -0.5017 -0.4475 0.7403
vn 0.5118 -0.3392 0.7893
vn -0.5246 -0.6093 0.5946
vn 0.5308 -0.3640 0.7653
vn 0.1458 0.0155 0.9892
vn -0.1733 0.0206 0.9847
vn 0.4546 0.6438 0.6155
vn 0.4524 0.7775 0.4369
vn 0.6664 0.4098 0.6228
vn 0.8553 0.4222 0.3005
vn 0.8508 -0.0826 0.5190
vn 0.9845 0.0119 0.1749
vn 0.8593 -0.2520 0.4452
vn 0.9998 -0.0156 0.0159
vn -0.4464 0.6056 0.6588
vn -0.3917 0.8211 0.4153
vn -0.6805 0.3818 0.6254
vn -0.8394 0.4779 0.2587
vn -0.8303 -0.0236 0.5568
vn -0.9753 0.1354 0.1747
vn -0.8304 -0.2232 0.5105
vn -0.9992 0.0289 0.0271
vn -0.3785 0.2980 0.8763
vn 0.4049 0.3282 0.8535
vn -0.4408 0.1357 0.8873
vn -0.8519 0.1107 0.5118
vn -0.5694 0.0002 0.8220
vn -0.8423 0.0150 0.5388
vn -0.6952 -0.0728 0.7152
vn 0.4844 0.1580 0.8605
vn 0.8344 0.1188 0.5382
vn 0.2764 -0.0422 0.9601
vn 0.8098 0.0530 0.5844
vn 0.2712 0.0115 0.9624
vn -0.0114 -0.1288 0.9916
vn 0.7176 0.1953 0.6685
vn 0.1886 -0.1270 0.9738
vn 0.6775 0.1842 0.7121
vn -0.0384 -0.1285 0.9910
vn -0.4672 0.0169 0.8840
vn -0.1629 -0.1016 0.9814
vn -0.4314 -0.0237 0.9019
vn 0.0995 -0.0671 -0.9928
vn 0.4672 0.8221 0.3255
vn 0.8503 0.4863 0.2011
vn -0.4707 0.8386 0.2743
vn -0.8323 0.5325 0.1541
vn 0.9973 -0.0249 0.0698
vn -0.9950 0.0967 0.0258
vn 0.8971 -0.2606 0.3568
vn 0.9769 -0.2129 -0.0209
vn 0.8588 -0.2744 0.4327
vn 0.9658 -0.2354 -0.1085
vn -0.8933 -0.1926 0.4061
vn -0.9915 -0.1134 -0.0642
vn -0.8227 -0.3247 0.4666
vn -0.9853 -0.1136 -0.1276
vn 0.5264 0.8469 0.0749
vn 0.8909 0.4526 0.0380
vn -0.5368 0.8418 0.0570
vn -0.8491 0.5278 0.0201
vn 0.9980 -0.0321 -0.0553
vn -0.9954 0.0690 -0.0669
vn 0.9727 -0.2243 0.0590
vn -0.9756 -0.2171 0.0327
vn 0.4617 0.8411 -0.2816
vn 0.7886 0.5189 -0.3299
vn -0.4863 0.8386 -0.2457
vn -0.7764 0.5585 -0.2921
vn 0.8957 0.0978 -0.4338
vn -0.9023 0.1890 -0.3875
vn 0.9143 -0.0945 -0.3939
vn -0.9520 -0.0582 -0.3004
vn 0.5058 0.4061 -0.7611
vn -0.4918 0.3992 -0.7738
vn 0.5626 0.1300 -0.8164
vn -0.6014 0.1852 -0.7772
vn -0.3770 0.6564 -0.6535
vn 0.3502 0.6126 -0.7085
vn 0.9755 0.0849 0.2029
vn -0.9801 0.0871 0.1785
vn 0.9027 -0.1291 -0.4104
vn -0.9406 -0.1090 -0.3214
vn 0.5573 -0.0961 -0.8248
vn -0.5438 -0.0310 -0.8387
vn 0.5407 -0.0703 -0.8383
vn -0.5316 -0.0695 -0.8441
vn -0.2079 0.0114 -0.9781
vn 0.2214 0.0120 -0.9751
vn 0.9730 -0.0109 -0.2307
vn -0.9757 -0.0412 -0.2154
vn 0.9029 0.0158 -0.4295
vn -0.9260 -0.0018 -0.3775
vn 0.6866 -0.0100 -0.7270
vn -0.7083 -0.0242 -0.7055
vn -0.9610 -0.0010 -0.2765
vn -0.9803 0.0554 0.1896
vn 0.5625 -0.0435 -0.8257
vn 0.1376 -0.0025 -0.9905
vn -0.1445 -0.0113 -0.9894
vn -0.5540 -0.0508 -0.8310
vn 0.9369 -0.0256 -0.3487
vn 0.9905 0.0106 0.1371
vn 0.9992 -0.0405 0.0007
vn -0.9971 -0.0758 -0.0096
vn -0.9815 0.0726 0.1772
vn 0.9820 0.0756 0.1730
vn 0.7357 0.1955 0.6484
vn -0.8454 0.1488 0.5131
vn -0.9107 0.0522 0.4098
vn 0.9045 0.0065 0.4265
vn 0.0206 0.7274 0.6859
vn 0.0410 0.9008 0.4323
vn 0.0091 0.3662 0.9305
vn 0.0108 -0.2419 0.9702
vn -0.0333 -0.4950 0.8683
vn 0.3860 -0.4451 0.8080
vn 0.0161 0.0450 0.9989
vn 0.0122 0.9161 0.4008
vn -0.0016 0.9947 0.1031
vn -0.0073 0.9627 -0.2705
vn -0.0217 0.6991 -0.7147
vn -0.0420 0.2931 -0.9552
vn -0.0334 -0.0959 -0.9948
vn -0.0498 -0.0281 -0.9984
vn -0.0450 0.0625 -0.9970
vn -0.0572 -0.0236 -0.9981
vn -0.0565 -0.0147 -0.9983
vn -0.0671 0.8967 0.4376
vn -0.1580 0.6830 0.7132
vn -0.2041 0.3442 0.9164
vn -0.2568 0.0813 0.9630
vn -0.2778 -0.0511 0.9593
vn -0.3918 -0.0360 0.9194
vn -0.1538 0.9216 0.3563
vn -0.2386 0.9673 0.0858
vn -0.2090 0.9408 -0.2670
vn -0.1614 0.6875 -0.7080
vn -0.2004 0.2907 -0.9356
vn -0.2706 0.0775 -0.9596
vn -0.2979 -0.0434 -0.9536
vn -0.3000 -0.0588 -0.9521
vn -0.3436 -0.0250 -0.9388
vn -0.3133 -0.0276 -0.9493
vn 0.2224 0.7124 0.6655
vn 0.1855 0.8782 0.4408
vn 0.1954 0.3586 0.9128
vn 0.2965 0.1108 0.9486
vn 0.4149 0.0335 0.9092
vn 0.6037 0.1292 0.7867
vn 0.1935 0.8996 0.3914
vn 0.2397 0.9662 0.0951
vn 0.2012 0.9431 -0.2646
vn 0.1361 0.6820 -0.7185
vn 0.1460 0.3175 -0.9370
vn 0.2321 0.0511 -0.9713
vn 0.3178 -0.1223 -0.9403
vn 0.3748 -0.0547 -0.9255
vn 0.4327 -0.0116 -0.9014
vn 0.3980 -0.0132 -0.9173
vn -0.2628 0.3690 0.8915
vn 0.2631 0.4310 0.8632
vn -0.5902 0.1929 0.7839
vn -0.7273 0.0444 0.6849
vn -0.7141 -0.0630 0.6972
vn 0.5580 0.1617 0.8139
vn 0.6157 0.0312 0.7873
vn 0.3569 0.0178 0.9340
vn 0.4573 0.7709 0.4433
vn 0.8170 0.3877 0.4269
vn 0.9579 -0.0094 0.2870
vn 0.9108 -0.2045 0.3586
vn -0.4303 0.7755 0.4620
vn -0.8229 0.4262 0.3757
vn -0.9484 0.0618 0.3110
vn -0.8931 -0.1724 0.4155
vn 0.0316 0.9273 0.3729
vn -0.1245 0.8929 0.4326
vn 0.2253 0.8905 0.3952
vn -0.4245 0.8024 0.4195
vn -0.8557 0.4962 0.1470
vn 0.8734 0.4414 0.2059
vn 0.4463 0.7514 0.4861
vn 0.9984 -0.0383 -0.0407
vn -0.9960 0.0870 0.0201
vn 0.9648 -0.2616 0.0260
vn 0.9687 -0.2481 -0.0111
vn -0.9770 -0.1904 0.0957
vn -0.9876 -0.1545 -0.0267
vn 0.0337 0.8304 0.5562
vn -0.0884 0.8548 0.5113
vn 0.1787 0.8123 0.5552
vn 0.9567 -0.1984 0.2129
vn 0.9686 -0.0444 0.2445
vn -0.5176 0.8430 0.1464
vn -0.8471 0.5030 0.1714
vn -0.9850 0.0686 0.1586
vn -0.9787 -0.1747 0.1078
vn 0.8764 0.4177 0.2396
vn 0.5068 0.8410 0.1892
vn 0.0001 0.9730 0.2307
vn -0.2091 0.9592 0.1900
vn 0.2168 0.9533 0.2105
vn 0.9934 -0.1110 -0.0298
vn 0.9644 0.0529 0.2590
vn 0.9810 -0.1878 -0.0495
vn -0.9851 -0.1698 0.0264
vn -0.9727 0.0695 0.2212
vn -0.9968 -0.0728 0.0315
vn -0.9825 0.1629 0.0905
vn 0.9819 0.1758 0.0702
vn -0.1578 -0.0365 -0.9868
vt 0.725152 0.503013
vt 0.723614 0.547169
vt 0.667480 0.503215
vt 0.781620 0.503681
vt 0.778051 0.443405
vt 0.832003 0.457261
vt 0.830856 0.507410
vt 0.881241 0.477412
vt 0.880648 0.511763
vt 0.911359 0.512301
vt 0.921259 0.526174
vt 0.720046 0.460598
vt 0.637442 0.551747
vt 0.665183 0.550121
vt 0.666123 0.572370
vt 0.635297 0.572332
vt 0.674996 0.642832
vt 0.630420 0.651273
vt 0.621284 0.743085
vt 0.590601 0.725326
vt 0.558016 0.804150
vt 0.555440 0.773527
vt 0.637387 0.459025
vt 0.608757 0.462896
vt 0.603814 0.444042
vt 0.632865 0.436657
vt 0.599583 0.369723
vt 0.633601 0.358561
vt 0.589870 0.304225
vt 0.614008 0.286557
vt 0.576452 0.255623
vt 0.578171 0.232288
vt 0.717487 0.564429
vt 0.703849 0.578413
vt 0.707315 0.359943
vt 0.679532 0.426119
vt 0.663797 0.427613
vt 0.674732 0.361325
vt 0.727865 0.310596
vt 0.741499 0.314722
vt 0.742401 0.279899
vt 0.750981 0.265009
vt 0.705101 0.642695
vt 0.683843 0.576971
vt 0.734959 0.623362
vt 0.755964 0.700339
vt 0.736802 0.708487
vt 0.771616 0.752916
vt 0.754549 0.747115
vt 0.762006 0.405328
vt 0.713006 0.442805
vt 0.698995 0.430242
vt 0.740731 0.372927
vt 0.761105 0.596814
vt 0.777327 0.564956
vt 0.805721 0.619014
vt 0.797285 0.631968
vt 0.818881 0.644517
vt 0.820609 0.659240
vt 0.777208 0.352172
vt 0.790123 0.370340
vt 0.808384 0.322610
vt 0.808605 0.339060
vt 0.665089 0.452957
vt 0.387624 0.505187
vt 0.324626 0.503687
vt 0.325937 0.463518
vt 0.385579 0.458462
vt 0.264771 0.503443
vt 0.276932 0.448891
vt 0.212162 0.503026
vt 0.233759 0.429324
vt 0.463237 0.288698
vt 0.513700 0.389209
vt 0.490726 0.400296
vt 0.450129 0.316588
vt 0.506681 0.628597
vt 0.450923 0.732876
vt 0.437196 0.706516
vt 0.483425 0.614202
vt 0.371827 0.805178
vt 0.467047 0.758152
vt 0.393049 0.824573
vt 0.400014 0.204227
vt 0.375992 0.219623
vt 0.348984 0.863386
vt 0.332384 0.852044
vt 0.329853 0.893244
vt 0.315138 0.906256
vt 0.328070 0.140274
vt 0.355071 0.143198
vt 0.320438 0.091332
vt 0.333068 0.107142
vt 0.322354 0.767191
vt 0.265654 0.818617
vt 0.225814 0.810436
vt 0.300445 0.750355
vt 0.426101 0.326723
vt 0.464711 0.405033
vt 0.441128 0.410288
vt 0.404231 0.336825
vt 0.296411 0.179037
vt 0.348439 0.238954
vt 0.325990 0.256901
vt 0.244672 0.186814
vt 0.412649 0.695401
vt 0.390958 0.683719
vt 0.458940 0.610757
vt 0.436807 0.606228
vt 0.352283 0.385255
vt 0.281700 0.328343
vt 0.382594 0.437434
vt 0.211784 0.754266
vt 0.267420 0.672464
vt 0.340734 0.633275
vt 0.375914 0.574708
vt 0.224969 0.240741
vt 0.445943 0.572584
vt 0.382904 0.553116
vt 0.469343 0.576841
vt 0.472478 0.437684
vt 0.499159 0.432002
vt 0.448288 0.442721
vt 0.288801 0.421071
vt 0.260533 0.389666
vt 0.249329 0.601256
vt 0.282957 0.587902
vt 0.318799 0.543732
vt 0.314366 0.559420
vt 0.273149 0.558431
vt 0.325408 0.448187
vt 0.194969 0.227932
vt 0.209074 0.170446
vt 0.199234 0.696525
vt 0.179837 0.766082
vt 0.165895 0.704149
vt 0.209711 0.293875
vt 0.189894 0.368865
vt 0.174828 0.578077
vt 0.228984 0.568301
vt 0.179117 0.623134
vt 0.178577 0.282115
vt 0.155191 0.357709
vt 0.140632 0.585199
vt 0.143844 0.631013
vt 0.135326 0.139594
vt 0.141213 0.258779
vt 0.113325 0.164142
vt 0.096694 0.593633
vt 0.101645 0.640684
vt 0.043589 0.686319
vt 0.055751 0.602924
vt 0.102493 0.397225
vt 0.096000 0.457840
vt 0.034088 0.442226
vt 0.061931 0.385161
vt 0.094053 0.497678
vt 0.095155 0.538445
vt 0.029575 0.557906
vt 0.052144 0.496295
vt 0.123775 0.721452
vt 0.078593 0.721112
vt 0.092270 0.808070
vt 0.071269 0.775550
vt 0.113784 0.344354
vt 0.059198 0.292627
vt 0.093759 0.254966
vt 0.145387 0.822494
vt 0.112775 0.835068
vt 0.140252 0.499148
vt 0.172601 0.534251
vt 0.159643 0.155917
vt 0.086632 0.082756
vt 0.058072 0.888480
vt 0.063036 0.829839
vt 0.073245 0.919570
vt 0.104745 0.052616
vt 0.164805 0.105972
vt 0.885727 0.544181
vt 0.933376 0.535777
vt 0.831399 0.556223
vt 0.146185 0.408233
vt 0.179495 0.419421
vt 0.523580 0.425110
vt 0.804322 0.385986
vt 0.807538 0.354621
vt 0.494954 0.581428
vt 0.519506 0.590441
vt 0.785103 0.641866
vt 0.821986 0.675379
vt 0.718182 0.708741
vt 0.740949 0.733562
vt 0.757466 0.318337
vt 0.761580 0.250178
vt 0.642096 0.269184
vt 0.583052 0.204508
vt 0.563729 0.708627
vt 0.554312 0.747372
vt 0.595586 0.641926
vt 0.606207 0.571040
vt 0.608156 0.551533
vt 0.529885 0.646230
vt 0.544854 0.598910
vt 0.536898 0.375550
vt 0.548695 0.418801
vt 0.373856 0.134852
vt 0.348521 0.114819
vt 0.424608 0.189078
vt 0.306336 0.852242
vt 0.303334 0.925206
vt 0.349027 0.786480
vt 0.478145 0.261499
vt 0.186528 0.814839
vt 0.137694 0.867429
vt 0.089626 0.194869
vt 0.085010 0.140900
vt 0.639719 0.506191
vt 0.610150 0.507067
vt 0.531101 0.506608
vt 0.557164 0.507089
vt 0.505985 0.505894
vt 0.478583 0.506478
vt 0.453767 0.506874
vt 0.172126 0.461534
vt 0.172841 0.502799
s 1
f 118/1/118 2/2/2 116/3/116
f 122/4/122 10/5/10 3/6/3 119/7/119
f 119/7/119 3/6/3 5/8/5 120/9/120
f 120/9/120 5/8/5 7/10/7 121/11/121
f 118/1/118 1/12/1 10/5/10 122/4/122
f 183/13/183 149/14/149 11/15/11 173/16/173
f 173/16/173 11/15/11 13/17/13 174/18/174
f 174/18/174 13/17/13 15/19/15 175/20/175
f 175/20/175 15/19/15 17/21/17 176/22/176
f 182/23/182 133/24/133 20/25/20 177/26/177
f 177/26/177 20/25/20 22/27/22 178/28/178
f 178/28/178 22/27/22 24/29/24 179/30/179
f 179/30/179 24/29/24 26/31/26 180/32/180
f 149/14/149 151/33/151 28/34/28
f 167/35/167 165/36/165 19/37/19 21/38/21
f 167/35/167 21/38/21 30/39/30 168/40/168
f 168/40/168 30/39/30 32/41/32 169/42/169
f 170/43/170 166/44/166 28/34/28 34/45/34
f 170/43/170 34/45/34 36/46/36 171/47/171
f 171/47/171 36/46/36 38/48/38 172/49/172
f 136/50/136 135/51/135 27/52/27 29/53/29
f 152/54/152 34/45/34 28/34/28 151/33/151
f 152/54/152 9/55/9 39/56/39 153/57/153
f 153/57/153 39/56/39 41/58/41 154/59/154
f 136/50/136 29/53/29 44/60/44 137/61/137
f 137/61/137 44/60/44 46/62/46 138/63/138
f 27/52/27 134/64/134 165/36/165
f 125/65/125 126/66/126 142/67/142 141/68/141
f 127/69/127 143/70/143 142/67/142 126/66/126
f 130/71/130 144/72/144 143/70/143 127/69/127
f 185/73/185 184/74/184 50/75/50 51/76/51
f 187/77/187 186/78/186 49/79/49 48/80/48
f 188/81/188 186/78/186 14/82/14 16/83/16
f 189/84/189 185/73/185 51/76/51 53/85/53
f 188/81/188 16/83/16 54/86/54 190/87/190
f 190/87/190 54/86/54 56/88/56 191/89/191
f 189/84/189 53/85/53 59/90/59 192/91/192
f 192/91/192 59/90/59 61/92/61 193/93/193
f 198/94/198 197/95/197 68/96/68 66/97/66
f 200/98/200 199/99/199 64/100/64 65/101/65
f 202/102/202 201/103/201 67/104/67 69/105/69
f 203/106/203 198/94/198 66/97/66 63/107/63
f 204/108/204 203/106/203 63/107/63 62/109/62
f 201/103/201 200/98/200 65/101/65 67/104/67
f 67/104/67 65/101/65 73/110/73 75/111/75
f 65/101/65 64/100/64 72/112/72 73/110/73
f 66/97/66 210/113/210 74/114/74
f 63/107/63 66/97/66 74/114/74 71/115/71
f 62/109/62 63/107/63 71/115/71 70/116/70
f 69/105/69 67/104/67 211/117/211
f 156/118/156 62/109/62 70/116/70 157/119/157
f 207/120/207 204/108/204 62/109/62 156/118/156
f 206/121/206 199/99/199 50/75/50 139/122/139
f 141/68/141 72/112/72 64/100/64 140/123/140
f 75/111/75 73/110/73 79/124/79 81/125/81
f 71/115/71 74/114/74 80/126/80 78/127/78
f 158/128/158 157/119/157 70/116/70 83/129/83
f 126/66/126 158/128/158 159/130/159 127/69/127
f 72/112/72 82/131/82 79/124/79 73/110/73
f 70/116/70 71/115/71 78/127/78 83/129/83
f 158/128/158 83/129/83 78/127/78 159/130/159
f 142/67/142 143/70/143 79/124/79 82/131/82
f 69/105/69 211/117/211 213/132/213 85/133/85
f 76/134/76 210/113/210 208/135/208 86/136/86
f 144/72/144 81/125/81 79/124/79 143/70/143
f 77/137/77 75/111/75 81/125/81 89/138/89
f 161/139/161 160/140/160 80/126/80 88/141/88
f 76/134/76 88/141/88 80/126/80 74/114/74
f 87/142/87 77/137/77 89/138/89 91/143/91
f 162/144/162 161/139/161 88/141/88 90/145/90
f 86/136/86 90/145/90 88/141/88 76/134/76
f 101/146/101 100/147/100 214/148/214
f 164/149/164 102/150/102 98/151/98 163/152/163
f 148/153/148 104/154/104 92/155/92 147/156/147
f 132/157/132 103/158/103 93/159/93 131/160/131
f 102/150/102 106/161/106 96/162/96 98/151/98
f 106/161/106 215/163/215 94/164/94 96/162/96
f 100/147/100 105/165/105 99/166/99 97/167/97
f 87/142/87 91/143/91 105/165/105 100/147/100
f 86/136/86 208/135/208 209/168/209 107/169/107 106/161/106
f 90/145/90 86/136/86 106/161/106 102/150/102
f 129/170/129 47/171/47 103/158/103 132/157/132
f 162/144/162 90/145/90 102/150/102 164/149/164
f 85/133/85 213/132/213 212/172/212
f 101/146/101 214/148/214 110/173/110
f 94/164/94 215/163/215 111/174/111 108/175/108
f 107/169/107 209/168/209 115/176/115
f 85/133/85 212/172/212 114/177/114 113/178/113
f 104/154/104 132/157/132 131/160/131 92/155/92
f 160/140/160 130/71/130 127/69/127 159/130/159
f 2/2/2 118/1/118 122/4/122 9/55/9
f 6/179/6 120/9/120 121/11/121 8/180/8
f 4/181/4 119/7/119 120/9/120 6/179/6
f 9/55/9 122/4/122 119/7/119 4/181/4
f 91/143/91 146/182/146 148/153/148 105/165/105
f 105/165/105 148/153/148 147/156/147 99/166/99
f 91/143/91 89/138/89 145/183/145 146/182/146
f 89/138/89 81/125/81 144/72/144 145/183/145
f 82/131/82 72/112/72 141/68/141 142/67/142
f 184/74/184 195/184/195 139/122/139 50/75/50
f 43/185/43 137/61/137 138/63/138 45/186/45
f 10/5/10 136/50/136 137/61/137 43/185/43
f 10/5/10 1/12/1 135/51/135 136/50/136
f 47/171/47 162/144/162 164/149/164 103/158/103
f 103/158/103 164/149/164 163/152/163 93/159/93
f 80/126/80 160/140/160 159/130/159 78/127/78
f 134/64/134 19/37/19 165/36/165
f 187/77/187 48/80/48 155/187/155 196/188/196
f 40/189/40 153/57/153 154/59/154 42/190/42
f 34/45/34 152/54/152 153/57/153 40/189/40
f 9/55/9 152/54/152 151/33/151 2/2/2
f 135/51/135 134/64/134 27/52/27
f 35/191/35 171/47/171 172/49/172 37/192/37
f 13/17/13 170/43/170 171/47/171 35/191/35
f 13/17/13 11/15/11 166/44/166 170/43/170
f 31/193/31 168/40/168 169/42/169 33/194/33
f 29/53/29 167/35/167 168/40/168 31/193/31
f 29/53/29 27/52/27 165/36/165 167/35/167
f 151/33/151 149/14/149 2/2/2
f 23/195/23 179/30/179 180/32/180 25/196/25
f 21/38/21 178/28/178 179/30/179 23/195/23
f 19/37/19 177/26/177 178/28/178 21/38/21
f 134/64/134 182/23/182 177/26/177 19/37/19
f 16/197/16 175/20/175 176/22/176 18/198/18
f 14/199/14 174/18/174 175/20/175 16/197/16
f 12/200/12 173/16/173 174/18/174 14/199/14
f 150/201/150 183/13/183 173/16/173 12/200/12
f 12/202/12 187/77/187 196/188/196 150/203/150
f 20/204/20 133/205/133 195/184/195 184/74/184
f 58/206/58 192/91/192 193/93/193 60/207/60
f 24/208/24 189/84/189 192/91/192 58/206/58
f 55/209/55 190/87/190 191/89/191 57/210/57
f 52/211/52 188/81/188 190/87/190 55/209/55
f 24/208/24 22/212/22 185/73/185 189/84/189
f 52/211/52 49/79/49 186/78/186 188/81/188
f 12/202/12 14/82/14 186/78/186 187/77/187
f 22/212/22 20/204/20 184/74/184 185/73/185
f 140/123/140 64/100/64 199/99/199 206/121/206
f 155/187/155 48/80/48 204/108/204 207/120/207
f 53/85/53 51/76/51 200/98/200 201/103/201
f 48/80/48 49/79/49 203/106/203 204/108/204
f 49/79/49 52/211/52 198/94/198 203/106/203
f 59/90/59 53/85/53 201/103/201 202/102/202
f 51/76/51 50/75/50 199/99/199 200/98/200
f 52/211/52 55/209/55 197/95/197 198/94/198
f 115/176/115 209/168/209 84/213/84 112/214/112
f 210/113/210 66/97/66 68/96/68
f 209/168/209 208/135/208 84/213/84
f 208/135/208 210/113/210 68/96/68 84/213/84
f 74/114/74 210/113/210 76/134/76
f 213/132/213 211/117/211 77/137/77 87/142/87
f 114/177/114 212/172/212 101/146/101
f 211/117/211 75/111/75 77/137/77
f 212/172/212 213/132/213 87/142/87 100/147/100 101/146/101
f 75/111/75 211/117/211 67/104/67
f 214/148/214 100/147/100 97/167/97 95/215/95
f 110/173/110 214/148/214 95/215/95 109/216/109
f 215/163/215 106/161/106 107/169/107
f 111/174/111 215/163/215 107/169/107
f 134/64/134 135/51/135 1/12/1
f 116/3/116 1/12/1 118/1/118
f 11/15/11 149/14/149 166/44/166
f 166/44/166 149/14/149 28/34/28
f 2/2/2 149/14/149 116/3/116
f 1/12/1 116/3/116 134/64/134
f 182/23/182 134/64/134 116/3/116 181/217/181
f 181/217/181 116/3/116 149/14/149 183/13/183
f 181/217/181 117/218/117 133/24/133 182/23/182
f 194/219/194 195/184/195 133/205/133 117/220/117
f 123/221/123 139/122/139 195/184/195 194/219/194
f 206/121/206 139/122/139 123/221/123 205/222/205
f 205/222/205 124/223/124 140/123/140 206/121/206
f 124/223/124 205/222/205 207/120/207 156/118/156
f 205/222/205 123/221/123 155/187/155 207/120/207
f 194/219/194 196/188/196 155/187/155 123/221/123
f 196/188/196 194/219/194 117/220/117 150/203/150
f 117/218/117 181/217/181 183/13/183 150/201/150
f 125/65/125 157/119/157 158/128/158 126/66/126
f 104/154/104 216/224/216 129/170/129 132/157/132
f 104/154/104 148/153/148 146/182/146 216/224/216
f 146/182/146 145/183/145 216/224/216
f 129/170/129 216/224/216 128/225/128
f 129/170/129 128/225/128 47/171/47
f 162/144/162 47/171/47 161/139/161
f 130/71/130 160/140/160 47/171/47
f 216/224/216 144/72/144 130/71/130
f 144/72/144 216/224/216 145/183/145
f 128/225/128 216/224/216 130/71/130
f 130/71/130 47/171/47 128/225/128
f 161/139/161 47/171/47 160/140/160
f 124/223/124 125/65/125 141/68/141 140/123/140
f 125/65/125 124/223/124 156/118/156 157/119/157
