# Blender 4.3.2
# www.blender.org
o FaceEyebrow
v -0.027650 1.559768 0.083482
v -0.020530 1.557687 0.085878
v -0.024993 1.568207 0.086827
v -0.016767 1.564492 0.088040
v -0.034606 1.562616 0.081126
v -0.032203 1.570248 0.084731
v -0.041480 1.564498 0.078644
v -0.040924 1.571641 0.081386
v -0.048541 1.564579 0.075440
v -0.049028 1.571310 0.077554
v -0.056119 1.564599 0.071614
v -0.056439 1.569027 0.072840
v -0.064892 1.563528 0.065504
v -0.061507 1.566399 0.068428
v 0.027650 1.559768 0.083482
v 0.020530 1.557687 0.085878
v 0.024993 1.568207 0.086827
v 0.016767 1.564492 0.088040
v 0.034606 1.562616 0.081126
v 0.032203 1.570248 0.084731
v 0.041480 1.564498 0.078644
v 0.040924 1.571641 0.081386
v 0.048541 1.564580 0.075440
v 0.049028 1.571310 0.077554
v 0.056119 1.564599 0.071614
v 0.056439 1.569027 0.072840
v 0.064892 1.563528 0.065504
v 0.061507 1.566399 0.068428
vn -0.3374 -0.2408 0.9100
vn -0.2985 -0.2106 0.9309
vn -0.3348 -0.2388 0.9115
vn -0.3807 -0.2833 0.8803
vn -0.3790 -0.2803 0.8820
vn -0.3930 -0.2993 0.8695
vn -0.3923 -0.2990 0.8699
vn -0.4202 -0.2938 0.8586
vn -0.4159 -0.2952 0.8601
vn -0.5012 -0.2544 0.8271
vn -0.4821 -0.2649 0.8351
vn -0.5506 -0.2257 0.8037
vn 0.3374 -0.2408 0.9100
vn 0.2985 -0.2106 0.9309
vn 0.3348 -0.2388 0.9115
vn 0.3807 -0.2833 0.8803
vn 0.3790 -0.2803 0.8820
vn 0.3930 -0.2993 0.8695
vn 0.3923 -0.2990 0.8699
vn 0.4202 -0.2938 0.8586
vn 0.4159 -0.2952 0.8601
vn 0.5012 -0.2544 0.8271
vn 0.4821 -0.2649 0.8351
vn 0.5506 -0.2257 0.8037
vt 0.000000 0.000000
vt 1.000000 0.000000
vt 1.000000 1.000000
vt 0.000000 1.000000
s 1
f 1/1/1 2/2/2 4/3/2 3/4/3
f 1/1/1 3/4/3 6/4/5 5/1/4
f 5/1/4 6/4/5 8/4/7 7/1/6
f 7/1/6 8/4/7 10/4/9 9/1/8
f 9/1/8 10/4/9 12/4/11 11/1/10
f 11/1/10 12/4/11 14/4/12 13/1/12
f 15/1/13 17/4/15 18/3/14 16/2/14
f 15/1/13 19/1/16 20/4/17 17/4/15
f 19/1/16 21/1/18 22/4/19 20/4/17
f 21/1/18 23/1/20 24/4/21 22/4/19
f 23/1/20 25/1/22 26/4/23 24/4/21
f 25/1/22 27/1/24 28/4/24 26/4/23
