# Blender 4.3.2
# www.blender.org
o Body_03-eyes
v 0.037758 1.550999 0.060194
v 0.037825 1.556934 0.052333
v 0.037825 1.560833 0.042919
v 0.038768 1.541319 0.063437
v 0.039568 1.549287 0.061060
v 0.039691 1.550708 0.060194
v 0.041427 1.553331 0.057180
v 0.042061 1.556516 0.052333
v 0.042531 1.558883 0.047818
v 0.042821 1.560341 0.042919
v 0.039675 1.540965 0.063437
v 0.041236 1.548495 0.061060
v 0.041549 1.549847 0.060194
v 0.044891 1.552280 0.057180
v 0.046134 1.555281 0.052333
v 0.047057 1.557510 0.047818
v 0.047626 1.558883 0.042919
v 0.040512 1.540391 0.063437
v 0.042774 1.547209 0.061060
v 0.043262 1.548447 0.060194
v 0.048084 1.550574 0.057180
v 0.049888 1.553274 0.052333
v 0.051229 1.555281 0.047818
v 0.052054 1.556516 0.042919
v 0.041244 1.539617 0.063437
v 0.044122 1.545478 0.061060
v 0.044764 1.546563 0.060194
v 0.050882 1.548277 0.057180
v 0.053178 1.550574 0.052333
v 0.054885 1.552280 0.047818
v 0.055935 1.553331 0.042919
v 0.041846 1.538675 0.063437
v 0.045229 1.543369 0.061060
v 0.045996 1.544268 0.060194
v 0.053178 1.545479 0.057180
v 0.055878 1.547284 0.052333
v 0.057885 1.548624 0.047818
v 0.059121 1.549450 0.042919
v 0.037825 1.535220 0.063441
v 0.042293 1.537600 0.063437
v 0.046051 1.540963 0.061060
v 0.046911 1.541650 0.060194
v 0.054885 1.542287 0.057180
v 0.057885 1.543530 0.052333
v 0.060115 1.544453 0.047818
v 0.061487 1.545022 0.042919
v 0.042568 1.536433 0.063437
v 0.046557 1.538353 0.061060
v 0.047475 1.538809 0.060194
v 0.055935 1.538823 0.057180
v 0.059121 1.539456 0.052333
v 0.061487 1.539927 0.047818
v 0.062945 1.540217 0.042919
v 0.042661 1.535220 0.063437
v 0.046728 1.535638 0.061060
v 0.047666 1.535854 0.060194
v 0.056290 1.535220 0.057180
v 0.059538 1.535220 0.052333
v 0.061951 1.535220 0.047818
v 0.063437 1.535220 0.042919
v 0.042568 1.534007 0.063437
v 0.046557 1.532923 0.061060
v 0.047475 1.532899 0.060194
v 0.055935 1.531618 0.057180
v 0.059121 1.530984 0.052333
v 0.061487 1.530514 0.047818
v 0.062945 1.530223 0.042919
v 0.042293 1.532840 0.063437
v 0.046051 1.530312 0.061060
v 0.046911 1.530058 0.060194
v 0.054885 1.528154 0.057180
v 0.057885 1.526911 0.052333
v 0.060115 1.525987 0.047818
v 0.061487 1.525419 0.042919
v 0.041846 1.531765 0.063437
v 0.045229 1.527906 0.061060
v 0.045996 1.527440 0.060194
v 0.053178 1.524961 0.057180
v 0.055878 1.523157 0.052333
v 0.057885 1.521816 0.047818
v 0.059121 1.520991 0.042919
v 0.041244 1.530823 0.063437
v 0.044122 1.525797 0.061060
v 0.044764 1.525145 0.060194
v 0.050882 1.522163 0.057180
v 0.053178 1.519867 0.052333
v 0.054885 1.518160 0.047818
v 0.055935 1.517109 0.042919
v 0.040512 1.530050 0.063437
v 0.042774 1.524067 0.061060
v 0.043262 1.523261 0.060194
v 0.048084 1.519867 0.057180
v 0.049888 1.517166 0.052333
v 0.051229 1.515160 0.047818
v 0.052054 1.513924 0.042919
v 0.039675 1.529475 0.063437
v 0.041236 1.522781 0.061060
v 0.041549 1.521862 0.060194
v 0.044891 1.518160 0.057180
v 0.046134 1.515160 0.052333
v 0.047057 1.512930 0.047818
v 0.047626 1.511557 0.042919
v 0.038768 1.529121 0.063437
v 0.039568 1.521989 0.061060
v 0.039691 1.521000 0.060194
v 0.041427 1.517109 0.057180
v 0.042061 1.513924 0.052333
v 0.042531 1.511557 0.047818
v 0.042821 1.510100 0.042919
v 0.037825 1.529002 0.063437
v 0.037832 1.521721 0.061060
v 0.037758 1.520709 0.060194
v 0.037825 1.516755 0.057180
v 0.037825 1.513507 0.052333
v 0.037825 1.511094 0.047818
v 0.037825 1.509608 0.042919
v 0.036881 1.529121 0.063437
v 0.036097 1.521989 0.061060
v 0.035825 1.521000 0.060194
v 0.034222 1.517109 0.057180
v 0.033588 1.513924 0.052333
v 0.033118 1.511557 0.047818
v 0.032828 1.510100 0.042919
v 0.035974 1.529475 0.063437
v 0.034428 1.522781 0.061060
v 0.033966 1.521862 0.060194
v 0.030758 1.518160 0.057180
v 0.029515 1.515160 0.052333
v 0.028592 1.512930 0.047818
v 0.028023 1.511557 0.042919
v 0.035138 1.530050 0.063437
v 0.032890 1.524067 0.061060
v 0.032253 1.523261 0.060194
v 0.027566 1.519867 0.057180
v 0.025761 1.517166 0.052333
v 0.024421 1.515160 0.047818
v 0.023595 1.513924 0.042919
v 0.034405 1.530823 0.063437
v 0.031542 1.525797 0.061060
v 0.030752 1.525145 0.060194
v 0.024767 1.522163 0.057180
v 0.022471 1.519867 0.052333
v 0.020765 1.518160 0.047818
v 0.019714 1.517109 0.042919
v 0.033803 1.531765 0.063437
v 0.030435 1.527906 0.061060
v 0.029520 1.527440 0.060194
v 0.022471 1.524961 0.057180
v 0.019771 1.523157 0.052333
v 0.017764 1.521816 0.047818
v 0.016528 1.520991 0.042919
v 0.033356 1.532840 0.063437
v 0.029613 1.530312 0.061060
v 0.028604 1.530058 0.060194
v 0.020765 1.528154 0.057180
v 0.017764 1.526911 0.052333
v 0.015535 1.525987 0.047818
v 0.014162 1.525419 0.042919
v 0.033081 1.534007 0.063437
v 0.029107 1.532923 0.061060
v 0.028040 1.532899 0.060194
v 0.019714 1.531618 0.057180
v 0.016528 1.530984 0.052333
v 0.014162 1.530514 0.047818
v 0.012704 1.530223 0.042919
v 0.032988 1.535220 0.063437
v 0.028936 1.535638 0.061060
v 0.027850 1.535854 0.060194
v 0.019359 1.535220 0.057180
v 0.016111 1.535220 0.052333
v 0.013698 1.535220 0.047818
v 0.012212 1.535220 0.042919
v 0.033081 1.536433 0.063437
v 0.029107 1.538353 0.061060
v 0.028040 1.538809 0.060194
v 0.019714 1.538823 0.057180
v 0.016528 1.539456 0.052333
v 0.014162 1.539927 0.047818
v 0.012704 1.540217 0.042919
v 0.033356 1.537600 0.063437
v 0.029613 1.540963 0.061060
v 0.028604 1.541650 0.060194
v 0.020765 1.542287 0.057180
v 0.017764 1.543530 0.052333
v 0.015535 1.544453 0.047818
v 0.014162 1.545022 0.042919
v 0.033803 1.538675 0.063437
v 0.030435 1.543369 0.061060
v 0.029520 1.544268 0.060194
v 0.022471 1.545479 0.057180
v 0.019771 1.547284 0.052333
v 0.017764 1.548624 0.047818
v 0.016528 1.549450 0.042919
v 0.034405 1.539617 0.063437
v 0.031542 1.545478 0.061060
v 0.030752 1.546563 0.060194
v 0.024767 1.548277 0.057180
v 0.022471 1.550574 0.052333
v 0.020765 1.552280 0.047818
v 0.019714 1.553331 0.042919
v 0.035138 1.540391 0.063437
v 0.032890 1.547209 0.061060
v 0.032253 1.548447 0.060194
v 0.027566 1.550574 0.057180
v 0.025761 1.553274 0.052333
v 0.024421 1.555281 0.047818
v 0.023595 1.556516 0.042919
v 0.035974 1.540965 0.063437
v 0.034428 1.548495 0.061060
v 0.033966 1.549847 0.060194
v 0.030758 1.552280 0.057180
v 0.029515 1.555281 0.052333
v 0.028592 1.557510 0.047818
v 0.028023 1.558883 0.042919
v 0.036881 1.541319 0.063437
v 0.036097 1.549287 0.061060
v 0.035825 1.550708 0.060194
v 0.034222 1.553331 0.057180
v 0.033588 1.556516 0.052333
v 0.033118 1.558883 0.047818
v 0.032828 1.560341 0.042919
v 0.037825 1.541439 0.063437
v 0.037832 1.549554 0.061060
v 0.037825 1.553686 0.057180
v 0.037825 1.559347 0.047818
v -0.037758 1.550999 0.060194
v -0.037825 1.556934 0.052333
v -0.037825 1.560833 0.042919
v -0.038768 1.541319 0.063437
v -0.039568 1.549287 0.061060
v -0.039691 1.550708 0.060194
v -0.041427 1.553331 0.057180
v -0.042061 1.556516 0.052333
v -0.042531 1.558883 0.047818
v -0.042821 1.560341 0.042919
v -0.039675 1.540965 0.063437
v -0.041236 1.548495 0.061060
v -0.041549 1.549847 0.060194
v -0.044891 1.552280 0.057180
v -0.046134 1.555281 0.052333
v -0.047057 1.557510 0.047818
v -0.047626 1.558883 0.042919
v -0.040512 1.540391 0.063437
v -0.042774 1.547209 0.061060
v -0.043262 1.548447 0.060194
v -0.048084 1.550574 0.057180
v -0.049888 1.553274 0.052333
v -0.051229 1.555281 0.047818
v -0.052054 1.556516 0.042919
v -0.041244 1.539617 0.063437
v -0.044122 1.545478 0.061060
v -0.044764 1.546563 0.060194
v -0.050882 1.548277 0.057180
v -0.053178 1.550574 0.052333
v -0.054885 1.552280 0.047818
v -0.055935 1.553331 0.042919
v -0.041846 1.538675 0.063437
v -0.045229 1.543369 0.061060
v -0.045996 1.544268 0.060194
v -0.053178 1.545479 0.057180
v -0.055878 1.547284 0.052333
v -0.057885 1.548624 0.047818
v -0.059121 1.549450 0.042919
v -0.037825 1.535220 0.063441
v -0.042293 1.537600 0.063437
v -0.046051 1.540963 0.061060
v -0.046911 1.541650 0.060194
v -0.054885 1.542287 0.057180
v -0.057885 1.543530 0.052333
v -0.060115 1.544453 0.047818
v -0.061487 1.545022 0.042919
v -0.042568 1.536433 0.063437
v -0.046557 1.538353 0.061060
v -0.047475 1.538809 0.060194
v -0.055935 1.538823 0.057180
v -0.059121 1.539456 0.052333
v -0.061487 1.539927 0.047818
v -0.062945 1.540217 0.042919
v -0.042661 1.535220 0.063437
v -0.046728 1.535638 0.061060
v -0.047666 1.535854 0.060194
v -0.056290 1.535220 0.057180
v -0.059538 1.535220 0.052333
v -0.061951 1.535220 0.047818
v -0.063437 1.535220 0.042919
v -0.042568 1.534007 0.063437
v -0.046557 1.532923 0.061060
v -0.047475 1.532899 0.060194
v -0.055935 1.531618 0.057180
v -0.059121 1.530984 0.052333
v -0.061487 1.530514 0.047818
v -0.062945 1.530223 0.042919
v -0.042293 1.532840 0.063437
v -0.046051 1.530312 0.061060
v -0.046911 1.530058 0.060194
v -0.054885 1.528154 0.057180
v -0.057885 1.526911 0.052333
v -0.060115 1.525987 0.047818
v -0.061487 1.525419 0.042919
v -0.041846 1.531765 0.063437
v -0.045229 1.527906 0.061060
v -0.045996 1.527440 0.060194
v -0.053178 1.524961 0.057180
v -0.055878 1.523157 0.052333
v -0.057885 1.521816 0.047818
v -0.059121 1.520991 0.042919
v -0.041244 1.530823 0.063437
v -0.044122 1.525797 0.061060
v -0.044764 1.525145 0.060194
v -0.050882 1.522163 0.057180
v -0.053178 1.519867 0.052333
v -0.054885 1.518160 0.047818
v -0.055935 1.517109 0.042919
v -0.040512 1.530050 0.063437
v -0.042774 1.524067 0.061060
v -0.043262 1.523261 0.060194
v -0.048084 1.519867 0.057180
v -0.049888 1.517166 0.052333
v -0.051229 1.515160 0.047818
v -0.052054 1.513924 0.042919
v -0.039675 1.529475 0.063437
v -0.041236 1.522781 0.061060
v -0.041549 1.521862 0.060194
v -0.044891 1.518160 0.057180
v -0.046134 1.515160 0.052333
v -0.047057 1.512930 0.047818
v -0.047626 1.511557 0.042919
v -0.038768 1.529121 0.063437
v -0.039568 1.521989 0.061060
v -0.039691 1.521000 0.060194
v -0.041427 1.517109 0.057180
v -0.042061 1.513924 0.052333
v -0.042531 1.511557 0.047818
v -0.042821 1.510100 0.042919
v -0.037825 1.529002 0.063437
v -0.037832 1.521721 0.061060
v -0.037758 1.520709 0.060194
v -0.037825 1.516755 0.057180
v -0.037825 1.513507 0.052333
v -0.037825 1.511094 0.047818
v -0.037825 1.509608 0.042919
v -0.036881 1.529121 0.063437
v -0.036097 1.521989 0.061060
v -0.035825 1.521000 0.060194
v -0.034222 1.517109 0.057180
v -0.033588 1.513924 0.052333
v -0.033118 1.511557 0.047818
v -0.032828 1.510100 0.042919
v -0.035974 1.529475 0.063437
v -0.034428 1.522781 0.061060
v -0.033966 1.521862 0.060194
v -0.030758 1.518160 0.057180
v -0.029515 1.515160 0.052333
v -0.028592 1.512930 0.047818
v -0.028023 1.511557 0.042919
v -0.035138 1.530050 0.063437
v -0.032890 1.524067 0.061060
v -0.032253 1.523261 0.060194
v -0.027566 1.519867 0.057180
v -0.025761 1.517166 0.052333
v -0.024421 1.515160 0.047818
v -0.023595 1.513924 0.042919
v -0.034405 1.530823 0.063437
v -0.031542 1.525797 0.061060
v -0.030752 1.525145 0.060194
v -0.024767 1.522163 0.057180
v -0.022471 1.519867 0.052333
v -0.020765 1.518160 0.047818
v -0.019714 1.517109 0.042919
v -0.033803 1.531765 0.063437
v -0.030435 1.527906 0.061060
v -0.029520 1.527440 0.060194
v -0.022471 1.524961 0.057180
v -0.019771 1.523157 0.052333
v -0.017764 1.521816 0.047818
v -0.016528 1.520991 0.042919
v -0.033356 1.532840 0.063437
v -0.029613 1.530312 0.061060
v -0.028604 1.530058 0.060194
v -0.020765 1.528154 0.057180
v -0.017764 1.526911 0.052333
v -0.015535 1.525987 0.047818
v -0.014162 1.525419 0.042919
v -0.033081 1.534007 0.063437
v -0.029107 1.532923 0.061060
v -0.028040 1.532899 0.060194
v -0.019714 1.531618 0.057180
v -0.016528 1.530984 0.052333
v -0.014162 1.530514 0.047818
v -0.012704 1.530223 0.042919
v -0.032988 1.535220 0.063437
v -0.028936 1.535638 0.061060
v -0.027850 1.535854 0.060194
v -0.019359 1.535220 0.057180
v -0.016111 1.535220 0.052333
v -0.013698 1.535220 0.047818
v -0.012212 1.535220 0.042919
v -0.033081 1.536433 0.063437
v -0.029107 1.538353 0.061060
v -0.028040 1.538809 0.060194
v -0.019714 1.538823 0.057180
v -0.016528 1.539456 0.052333
v -0.014162 1.539927 0.047818
v -0.012704 1.540217 0.042919
v -0.033356 1.537600 0.063437
v -0.029613 1.540963 0.061060
v -0.028604 1.541650 0.060194
v -0.020765 1.542287 0.057180
v -0.017764 1.543530 0.052333
v -0.015535 1.544453 0.047818
v -0.014162 1.545022 0.042919
v -0.033803 1.538675 0.063437
v -0.030435 1.543369 0.061060
v -0.029520 1.544268 0.060194
v -0.022471 1.545479 0.057180
v -0.019771 1.547284 0.052333
v -0.017764 1.548624 0.047818
v -0.016528 1.549450 0.042919
v -0.034405 1.539617 0.063437
v -0.031542 1.545478 0.061060
v -0.030752 1.546563 0.060194
v -0.024767 1.548277 0.057180
v -0.022471 1.550574 0.052333
v -0.020765 1.552280 0.047818
v -0.019714 1.553331 0.042919
v -0.035138 1.540391 0.063437
v -0.032890 1.547209 0.061060
v -0.032253 1.548447 0.060194
v -0.027566 1.550574 0.057180
v -0.025761 1.553274 0.052333
v -0.024421 1.555281 0.047818
v -0.023595 1.556516 0.042919
v -0.035974 1.540965 0.063437
v -0.034428 1.548495 0.061060
v -0.033966 1.549847 0.060194
v -0.030758 1.552280 0.057180
v -0.029515 1.555281 0.052333
v -0.028592 1.557510 0.047818
v -0.028023 1.558883 0.042919
v -0.036881 1.541319 0.063437
v -0.036097 1.549287 0.061060
v -0.035825 1.550708 0.060194
v -0.034222 1.553331 0.057180
v -0.033588 1.556516 0.052333
v -0.033118 1.558883 0.047818
v -0.032828 1.560341 0.042919
v -0.037825 1.541439 0.063437
v -0.037832 1.549554 0.061060
v -0.037825 1.553686 0.057180
v -0.037825 1.559347 0.047818
vn -0.0005 0.6846 0.7290
vn -0.0000 0.8650 0.5017
vn -0.0000 0.9569 0.2903
vn 0.0596 0.1689 0.9838
vn 0.1376 0.4174 0.8983
vn 0.1527 0.6188 0.7706
vn 0.1628 0.7752 0.6105
vn 0.1644 0.8463 0.5066
vn 0.1696 0.9166 0.3622
vn 0.1549 0.9444 0.2901
vn 0.1054 0.1464 0.9836
vn 0.2488 0.3729 0.8939
vn 0.2709 0.5164 0.8124
vn 0.3115 0.6984 0.6444
vn 0.3229 0.7960 0.5119
vn 0.3391 0.8627 0.3752
vn 0.3315 0.8977 0.2901
vn 0.1474 0.1289 0.9806
vn 0.3430 0.3250 0.8813
vn 0.3569 0.4170 0.8359
vn 0.4276 0.5886 0.6861
vn 0.4705 0.7172 0.5140
vn 0.4990 0.7787 0.3804
vn 0.5048 0.8130 0.2901
vn 0.1862 0.1089 0.9765
vn 0.4223 0.2708 0.8650
vn 0.4173 0.3246 0.8488
vn 0.5088 0.4660 0.7239
vn 0.6010 0.6114 0.5147
vn 0.6411 0.6656 0.3820
vn 0.6604 0.6926 0.2902
vn 0.2198 0.0843 0.9719
vn 0.4880 0.2109 0.8470
vn 0.4585 0.2400 0.8557
vn 0.5615 0.3434 0.7528
vn 0.7089 0.4823 0.5147
vn 0.7594 0.5265 0.3823
vn 0.7897 0.5405 0.2903
vn -0.0000 -0.0000 1.0000
vn 0.2452 0.0554 0.9679
vn 0.5398 0.1455 0.8291
vn 0.4860 0.1615 0.8589
vn 0.5931 0.2266 0.7726
vn 0.7898 0.3340 0.5145
vn 0.8489 0.3652 0.3821
vn 0.8854 0.3631 0.2903
vn 0.2599 0.0246 0.9653
vn 0.5768 0.0747 0.8135
vn 0.5038 0.0861 0.8595
vn 0.6097 0.1165 0.7841
vn 0.8403 0.1716 0.5143
vn 0.9049 0.1876 0.3820
vn 0.9418 0.1694 0.2902
vn 0.2638 -0.0009 0.9646
vn 0.5959 -0.0035 0.8031
vn 0.5140 0.0085 0.8578
vn 0.6148 0.0086 0.7886
vn 0.8576 0.0019 0.5143
vn 0.9241 0.0025 0.3821
vn 0.9565 -0.0305 0.2901
vn 0.2622 -0.0255 0.9647
vn 0.5918 -0.0819 0.8019
vn 0.5155 -0.0739 0.8537
vn 0.6088 -0.1017 0.7868
vn 0.8411 -0.1672 0.5144
vn 0.9061 -0.1811 0.3823
vn 0.9298 -0.2266 0.2900
vn 0.2506 -0.0569 0.9664
vn 0.5689 -0.1560 0.8075
vn 0.5068 -0.1569 0.8477
vn 0.5894 -0.2157 0.7785
vn 0.7918 -0.3290 0.5145
vn 0.8526 -0.3561 0.3824
vn 0.8644 -0.4107 0.2899
vn 0.2274 -0.0873 0.9699
vn 0.5291 -0.2300 0.8168
vn 0.4855 -0.2433 0.8397
vn 0.5533 -0.3326 0.7637
vn 0.7121 -0.4777 0.5145
vn 0.7663 -0.5165 0.3821
vn 0.7644 -0.5759 0.2899
vn 0.1948 -0.1140 0.9742
vn 0.4720 -0.3031 0.8279
vn 0.4460 -0.3359 0.8296
vn 0.4963 -0.4503 0.7423
vn 0.6052 -0.6077 0.5142
vn 0.6509 -0.6566 0.3810
vn 0.6348 -0.7163 0.2898
vn 0.1555 -0.1361 0.9784
vn 0.3957 -0.3745 0.8385
vn 0.3800 -0.4325 0.8176
vn 0.4129 -0.5636 0.7154
vn 0.4755 -0.7144 0.5133
vn 0.5114 -0.7716 0.3783
vn 0.4819 -0.8269 0.2898
vn 0.1120 -0.1557 0.9814
vn 0.2968 -0.4429 0.8460
vn 0.2798 -0.5239 0.8045
vn 0.2996 -0.6629 0.6861
vn 0.3281 -0.7944 0.5112
vn 0.3532 -0.8582 0.3724
vn 0.3141 -0.9041 0.2898
vn 0.0638 -0.1810 0.9814
vn 0.1696 -0.5107 0.8429
vn 0.1459 -0.5920 0.7926
vn 0.1584 -0.7357 0.6585
vn 0.1681 -0.8457 0.5066
vn 0.1814 -0.9149 0.3606
vn 0.1458 -0.9458 0.2900
vn -0.0000 -0.2074 0.9783
vn 0.0012 -0.5601 0.8284
vn -0.0003 -0.6161 0.7877
vn -0.0000 -0.7660 0.6428
vn -0.0000 -0.8647 0.5022
vn -0.0000 -0.9366 0.3504
vn -0.0000 -0.9569 0.2903
vn -0.0639 -0.1811 0.9814
vn -0.1629 -0.4979 0.8518
vn -0.1460 -0.5883 0.7954
vn -0.1584 -0.7363 0.6578
vn -0.1681 -0.8457 0.5066
vn -0.1814 -0.9149 0.3606
vn -0.1458 -0.9458 0.2900
vn -0.1122 -0.1559 0.9814
vn -0.2823 -0.4258 0.8597
vn -0.2753 -0.5131 0.8130
vn -0.3000 -0.6642 0.6847
vn -0.3281 -0.7944 0.5112
vn -0.3532 -0.8582 0.3724
vn -0.3141 -0.9041 0.2898
vn -0.1558 -0.1364 0.9783
vn -0.3745 -0.3578 0.8554
vn -0.3681 -0.4176 0.8307
vn -0.4139 -0.5652 0.7136
vn -0.4755 -0.7144 0.5133
vn -0.5114 -0.7716 0.3783
vn -0.4819 -0.8269 0.2898
vn -0.1952 -0.1142 0.9741
vn -0.4462 -0.2893 0.8469
vn -0.4269 -0.3207 0.8455
vn -0.4977 -0.4518 0.7404
vn -0.6052 -0.6077 0.5142
vn -0.6509 -0.6566 0.3810
vn -0.6348 -0.7163 0.2898
vn -0.2280 -0.0876 0.9697
vn -0.5007 -0.2200 0.8372
vn -0.4611 -0.2303 0.8570
vn -0.5550 -0.3337 0.7619
vn -0.7121 -0.4777 0.5145
vn -0.7663 -0.5165 0.3821
vn -0.7644 -0.5759 0.2899
vn -0.2513 -0.0570 0.9662
vn -0.5395 -0.1499 0.8286
vn -0.4790 -0.1475 0.8653
vn -0.5912 -0.2165 0.7769
vn -0.7918 -0.3290 0.5145
vn -0.8526 -0.3561 0.3824
vn -0.8644 -0.4107 0.2899
vn -0.2630 -0.0256 0.9645
vn -0.5622 -0.0790 0.8232
vn -0.4863 -0.0690 0.8711
vn -0.6107 -0.1022 0.7852
vn -0.8411 -0.1672 0.5144
vn -0.9061 -0.1811 0.3823
vn -0.9298 -0.2266 0.2900
vn -0.2645 -0.0009 0.9644
vn -0.5667 -0.0029 0.8239
vn -0.4851 0.0079 0.8744
vn -0.6168 0.0085 0.7871
vn -0.8576 0.0019 0.5143
vn -0.9241 0.0025 0.3821
vn -0.9565 -0.0305 0.2901
vn -0.2606 0.0247 0.9651
vn -0.5481 0.0725 0.8332
vn -0.4770 0.0811 0.8752
vn -0.6116 0.1167 0.7825
vn -0.8403 0.1716 0.5143
vn -0.9049 0.1876 0.3820
vn -0.9418 0.1694 0.2902
vn -0.2459 0.0556 0.9677
vn -0.5126 0.1400 0.8471
vn -0.4624 0.1535 0.8733
vn -0.5951 0.2273 0.7708
vn -0.7898 0.3340 0.5145
vn -0.8489 0.3652 0.3821
vn -0.8854 0.3631 0.2903
vn -0.2203 0.0845 0.9718
vn -0.4631 0.2022 0.8629
vn -0.4395 0.2299 0.8683
vn -0.5634 0.3446 0.7509
vn -0.7089 0.4823 0.5147
vn -0.7594 0.5265 0.3823
vn -0.7897 0.5405 0.2903
vn -0.1866 0.1091 0.9764
vn -0.4010 0.2595 0.8785
vn -0.4041 0.3141 0.8591
vn -0.5104 0.4677 0.7216
vn -0.6010 0.6114 0.5147
vn -0.6411 0.6656 0.3820
vn -0.6604 0.6926 0.2902
vn -0.1476 0.1292 0.9806
vn -0.3265 0.3122 0.8922
vn -0.3502 0.4083 0.8430
vn -0.4288 0.5906 0.6837
vn -0.4705 0.7172 0.5140
vn -0.4990 0.7787 0.3804
vn -0.5048 0.8130 0.2901
vn -0.1055 0.1466 0.9836
vn -0.2382 0.3605 0.9018
vn -0.2697 0.5119 0.8156
vn -0.3120 0.7002 0.6422
vn -0.3229 0.7960 0.5119
vn -0.3391 0.8627 0.3752
vn -0.3315 0.8977 0.2901
vn -0.0596 0.1690 0.9838
vn -0.1329 0.4086 0.9030
vn -0.1538 0.6188 0.7703
vn -0.1627 0.7761 0.6093
vn -0.1644 0.8463 0.5066
vn -0.1696 0.9166 0.3622
vn -0.1549 0.9444 0.2901
vn -0.0000 0.1922 0.9814
vn 0.0008 0.4498 0.8931
vn 0.0001 0.8020 0.5973
vn -0.0000 0.9365 0.3505
vn 0.0005 0.6846 0.7290
vn -0.0596 0.1689 0.9838
vn -0.1376 0.4174 0.8983
vn -0.1527 0.6188 0.7706
vn -0.1628 0.7751 0.6105
vn -0.1054 0.1464 0.9836
vn -0.2488 0.3729 0.8939
vn -0.2709 0.5164 0.8124
vn -0.3115 0.6984 0.6444
vn -0.1474 0.1289 0.9806
vn -0.3430 0.3250 0.8813
vn -0.3569 0.4170 0.8359
vn -0.4276 0.5886 0.6861
vn -0.1862 0.1089 0.9765
vn -0.4223 0.2708 0.8650
vn -0.4173 0.3246 0.8488
vn -0.5088 0.4660 0.7239
vn -0.2198 0.0843 0.9719
vn -0.4880 0.2109 0.8470
vn -0.4585 0.2400 0.8557
vn -0.5615 0.3434 0.7528
vn -0.2452 0.0554 0.9679
vn -0.5398 0.1455 0.8291
vn -0.4860 0.1615 0.8589
vn -0.5931 0.2266 0.7726
vn -0.2599 0.0246 0.9653
vn -0.5768 0.0747 0.8135
vn -0.5038 0.0861 0.8595
vn -0.6097 0.1165 0.7841
vn -0.2638 -0.0009 0.9646
vn -0.5959 -0.0035 0.8031
vn -0.5140 0.0085 0.8578
vn -0.6148 0.0086 0.7886
vn -0.2622 -0.0255 0.9647
vn -0.5918 -0.0819 0.8019
vn -0.5155 -0.0739 0.8537
vn -0.6088 -0.1017 0.7868
vn -0.2506 -0.0569 0.9664
vn -0.5689 -0.1560 0.8075
vn -0.5068 -0.1569 0.8477
vn -0.5894 -0.2157 0.7785
vn -0.2274 -0.0873 0.9699
vn -0.5291 -0.2300 0.8168
vn -0.4855 -0.2433 0.8397
vn -0.5533 -0.3326 0.7637
vn -0.1948 -0.1140 0.9742
vn -0.4720 -0.3031 0.8279
vn -0.4460 -0.3359 0.8296
vn -0.4963 -0.4503 0.7423
vn -0.1555 -0.1361 0.9784
vn -0.3957 -0.3745 0.8385
vn -0.3800 -0.4325 0.8176
vn -0.4129 -0.5636 0.7154
vn -0.1120 -0.1557 0.9814
vn -0.2968 -0.4429 0.8460
vn -0.2798 -0.5239 0.8045
vn -0.2996 -0.6629 0.6861
vn -0.0638 -0.1810 0.9814
vn -0.1696 -0.5107 0.8429
vn -0.1459 -0.5920 0.7926
vn -0.1584 -0.7357 0.6585
vn -0.0012 -0.5601 0.8284
vn 0.0003 -0.6161 0.7877
vn 0.0639 -0.1811 0.9814
vn 0.1629 -0.4979 0.8518
vn 0.1460 -0.5883 0.7954
vn 0.1584 -0.7363 0.6578
vn 0.1122 -0.1559 0.9814
vn 0.2823 -0.4258 0.8597
vn 0.2753 -0.5131 0.8130
vn 0.3000 -0.6642 0.6847
vn 0.1558 -0.1364 0.9783
vn 0.3745 -0.3578 0.8554
vn 0.3681 -0.4176 0.8307
vn 0.4139 -0.5652 0.7136
vn 0.1952 -0.1142 0.9741
vn 0.4462 -0.2893 0.8469
vn 0.4269 -0.3207 0.8455
vn 0.4977 -0.4518 0.7404
vn 0.2280 -0.0876 0.9697
vn 0.5007 -0.2200 0.8372
vn 0.4611 -0.2303 0.8570
vn 0.5550 -0.3337 0.7619
vn 0.2513 -0.0570 0.9662
vn 0.5395 -0.1499 0.8286
vn 0.4790 -0.1475 0.8653
vn 0.5912 -0.2165 0.7769
vn 0.2630 -0.0256 0.9645
vn 0.5622 -0.0790 0.8232
vn 0.4863 -0.0690 0.8711
vn 0.6107 -0.1022 0.7852
vn 0.2645 -0.0009 0.9644
vn 0.5667 -0.0029 0.8239
vn 0.4851 0.0079 0.8744
vn 0.6168 0.0085 0.7871
vn 0.2606 0.0247 0.9651
vn 0.5481 0.0725 0.8332
vn 0.4770 0.0811 0.8752
vn 0.6116 0.1167 0.7825
vn 0.2459 0.0556 0.9677
vn 0.5126 0.1400 0.8471
vn 0.4624 0.1535 0.8733
vn 0.5951 0.2273 0.7709
vn 0.2203 0.0845 0.9718
vn 0.4631 0.2022 0.8629
vn 0.4395 0.2299 0.8683
vn 0.5634 0.3446 0.7509
vn 0.1866 0.1091 0.9764
vn 0.4010 0.2595 0.8785
vn 0.4041 0.3141 0.8591
vn 0.5104 0.4677 0.7216
vn 0.1476 0.1292 0.9806
vn 0.3265 0.3122 0.8922
vn 0.3502 0.4083 0.8430
vn 0.4288 0.5906 0.6837
vn 0.1055 0.1466 0.9836
vn 0.2382 0.3605 0.9018
vn 0.2697 0.5119 0.8156
vn 0.3120 0.7002 0.6422
vn 0.0596 0.1690 0.9838
vn 0.1329 0.4086 0.9030
vn 0.1538 0.6188 0.7703
vn 0.1627 0.7761 0.6093
vn -0.0008 0.4498 0.8931
vn -0.0001 0.8020 0.5973
vt 0.756584 0.962818
vt 0.756147 0.938500
vt 0.788873 0.931418
vt 0.796355 0.955817
vt 0.751034 0.656624
vt 0.749066 0.547980
vt 0.757393 0.654506
vt 0.753568 0.791966
vt 0.765219 0.787306
vt 0.753501 0.814547
vt 0.766324 0.809649
vt 0.754645 0.854819
vt 0.778884 0.848925
vt 0.755506 0.902779
vt 0.784739 0.896125
vt 0.815705 0.876146
vt 0.825820 0.909946
vt 0.842643 0.932162
vt 0.763452 0.648310
vt 0.776410 0.773625
vt 0.779177 0.795105
vt 0.803258 0.831455
vt 0.786822 0.751399
vt 0.791353 0.771109
vt 0.826532 0.802429
vt 0.847420 0.842345
vt 0.865556 0.872270
vt 0.890057 0.890171
vt 0.768990 0.638264
vt 0.901944 0.818626
vt 0.932042 0.830944
vt 0.773790 0.624737
vt 0.796136 0.721421
vt 0.802150 0.738510
vt 0.847016 0.762653
vt 0.876137 0.795030
vt 0.811164 0.698576
vt 0.863756 0.713586
vt 0.898608 0.736178
vt 0.929644 0.751769
vt 0.963284 0.757864
vt 0.777642 0.608232
vt 0.803988 0.684751
vt 0.780350 0.589382
vt 0.809946 0.642704
vt 0.817957 0.652762
vt 0.876063 0.657189
vt 0.914235 0.668714
vt 0.948091 0.675521
vt 0.983064 0.675359
vt 0.883081 0.595657
vt 0.922835 0.595431
vt 0.957868 0.593119
vt 0.993146 0.586583
vt 0.781757 0.568945
vt 0.813514 0.596849
vt 0.822070 0.602790
vt 0.781954 0.547717
vt 0.814112 0.549044
vt 0.822843 0.550682
vt 0.884495 0.531605
vt 0.924049 0.519256
vt 0.958659 0.507536
vt 0.993146 0.494570
vt 0.879964 0.467658
vt 0.917759 0.443238
vt 0.950620 0.422194
vt 0.983256 0.402875
vt 0.780951 0.526490
vt 0.811749 0.501252
vt 0.820226 0.498591
vt 0.778789 0.506070
vt 0.806531 0.455358
vt 0.814393 0.448580
vt 0.870048 0.406394
vt 0.904532 0.370420
vt 0.934158 0.340403
vt 0.963713 0.314904
vt 0.884955 0.303675
vt 0.909657 0.265438
vt 0.934663 0.234190
vt 0.775405 0.487238
vt 0.799075 0.413199
vt 0.806021 0.402642
vt 0.855480 0.350208
vt 0.770968 0.470751
vt 0.789953 0.376350
vt 0.795716 0.362487
vt 0.836954 0.301240
vt 0.859931 0.245721
vt 0.878397 0.200560
vt 0.897655 0.164439
vt 0.831257 0.198828
vt 0.843234 0.148413
vt 0.856271 0.108593
vt 0.765700 0.457241
vt 0.779599 0.346192
vt 0.783842 0.329602
vt 0.815315 0.261377
vt 0.768403 0.323843
vt 0.770788 0.305297
vt 0.791803 0.232048
vt 0.801100 0.164565
vt 0.807509 0.110645
vt 0.814388 0.068483
vt 0.759821 0.447223
vt 0.773313 0.087959
vt 0.775462 0.044818
vt 0.753559 0.441074
vt 0.756715 0.310127
vt 0.757336 0.290479
vt 0.767513 0.214174
vt 0.771117 0.143841
vt 0.744048 0.285561
vt 0.743106 0.208267
vt 0.741839 0.137048
vt 0.740833 0.080530
vt 0.740062 0.037182
vt 0.747141 0.439029
vt 0.744873 0.305552
vt 0.740796 0.441159
vt 0.733190 0.310280
vt 0.730939 0.290653
vt 0.718918 0.214502
vt 0.712810 0.144233
vt 0.708626 0.088393
vt 0.704943 0.045292
vt 0.718025 0.305647
vt 0.695270 0.232699
vt 0.683571 0.165357
vt 0.675245 0.111533
vt 0.666868 0.069472
vt 0.734750 0.447390
vt 0.721976 0.324146
vt 0.729226 0.457484
vt 0.711553 0.346637
vt 0.705862 0.330122
vt 0.672808 0.262336
vt 0.654643 0.200016
vt 0.640873 0.149772
vt 0.626421 0.110137
vt 0.652603 0.302482
vt 0.627647 0.247284
vt 0.607575 0.202381
vt 0.587035 0.166526
vt 0.724435 0.471062
vt 0.702247 0.376929
vt 0.695180 0.363157
vt 0.720581 0.487605
vt 0.694411 0.413892
vt 0.686308 0.403440
vt 0.635838 0.351687
vt 0.604703 0.305562
vt 0.578639 0.267666
vt 0.552523 0.236761
vt 0.623278 0.408054
vt 0.587518 0.372554
vt 0.556827 0.342942
vt 0.526367 0.317849
vt 0.717866 0.506479
vt 0.688434 0.456145
vt 0.679567 0.449481
vt 0.716430 0.526924
vt 0.684835 0.502104
vt 0.675507 0.499563
vt 0.615541 0.469437
vt 0.576887 0.445531
vt 0.543285 0.424934
vt 0.509969 0.406058
vt 0.573299 0.521618
vt 0.538281 0.510365
vt 0.503341 0.497865
vt 0.716183 0.548161
vt 0.684174 0.549921
vt 0.674743 0.551681
vt 0.613282 0.533433
vt 0.686490 0.597711
vt 0.677382 0.603772
vt 0.616983 0.597453
vt 0.577231 0.597763
vt 0.542124 0.595923
vt 0.506622 0.589863
vt 0.717142 0.569383
vt 0.554848 0.678174
vt 0.519879 0.678484
vt 0.719285 0.589796
vt 0.691723 0.643511
vt 0.683293 0.653682
vt 0.626206 0.658877
vt 0.588455 0.670914
vt 0.699216 0.685470
vt 0.691732 0.699398
vt 0.640524 0.715096
vt 0.606481 0.738150
vt 0.576007 0.754155
vt 0.542592 0.760702
vt 0.722673 0.608606
vt 0.606081 0.820627
vt 0.576431 0.833348
vt 0.727123 0.625055
vt 0.708411 0.722024
vt 0.702176 0.739200
vt 0.659000 0.763925
vt 0.631037 0.796687
vt 0.714126 0.771641
vt 0.680888 0.803416
vt 0.661443 0.843605
vt 0.644386 0.873767
vt 0.620534 0.891996
vt 0.732413 0.638514
vt 0.718826 0.751868
vt 0.738315 0.648482
vt 0.730055 0.773945
vt 0.727136 0.795462
vt 0.705204 0.832120
vt 0.694366 0.876967
vt 0.685466 0.910896
vt 0.669446 0.933335
vt 0.740505 0.809826
vt 0.730203 0.849253
vt 0.726041 0.896522
vt 0.723175 0.931862
vt 0.716571 0.956357
vt 0.744599 0.654592
vt 0.741748 0.787468
vt 0.266779 0.037182
vt 0.306551 0.044183
vt 0.299069 0.068582
vt 0.266343 0.061500
vt 0.261229 0.343376
vt 0.267588 0.345494
vt 0.259261 0.452020
vt 0.263764 0.208034
vt 0.275415 0.212694
vt 0.263696 0.185453
vt 0.276519 0.190351
vt 0.264841 0.145181
vt 0.289079 0.151075
vt 0.265701 0.097221
vt 0.294935 0.103875
vt 0.336016 0.090054
vt 0.325901 0.123854
vt 0.352839 0.067838
vt 0.273648 0.351690
vt 0.286606 0.226375
vt 0.289372 0.204895
vt 0.313453 0.168545
vt 0.301548 0.228891
vt 0.297018 0.248601
vt 0.336727 0.197571
vt 0.357615 0.157655
vt 0.375752 0.127730
vt 0.400252 0.109829
vt 0.279185 0.361736
vt 0.442238 0.169056
vt 0.412139 0.181374
vt 0.283985 0.375263
vt 0.306332 0.278579
vt 0.312346 0.261490
vt 0.357212 0.237347
vt 0.386332 0.204970
vt 0.373952 0.286414
vt 0.321360 0.301424
vt 0.408804 0.263822
vt 0.439839 0.248231
vt 0.473479 0.242135
vt 0.287838 0.391768
vt 0.314184 0.315249
vt 0.290545 0.410618
vt 0.320141 0.357296
vt 0.328152 0.347238
vt 0.386259 0.342811
vt 0.424430 0.331286
vt 0.458287 0.324479
vt 0.493260 0.324641
vt 0.433031 0.404569
vt 0.393277 0.404343
vt 0.468064 0.406881
vt 0.503341 0.413417
vt 0.291953 0.431055
vt 0.323709 0.403151
vt 0.332266 0.397210
vt 0.292150 0.452283
vt 0.324308 0.450956
vt 0.333039 0.449318
vt 0.394691 0.468395
vt 0.434245 0.480744
vt 0.468855 0.492464
vt 0.503341 0.505430
vt 0.427955 0.556762
vt 0.390159 0.532342
vt 0.460815 0.577806
vt 0.493451 0.597125
vt 0.291147 0.473510
vt 0.321944 0.498748
vt 0.330422 0.501409
vt 0.316726 0.544642
vt 0.288984 0.493930
vt 0.324588 0.551420
vt 0.380244 0.593606
vt 0.414728 0.629580
vt 0.444353 0.659597
vt 0.473909 0.685096
vt 0.419852 0.734562
vt 0.395150 0.696325
vt 0.444859 0.765810
vt 0.285600 0.512762
vt 0.309271 0.586801
vt 0.316217 0.597358
vt 0.365676 0.649792
vt 0.300149 0.623650
vt 0.281164 0.529249
vt 0.305911 0.637513
vt 0.347150 0.698760
vt 0.370126 0.754279
vt 0.388593 0.799440
vt 0.407851 0.835562
vt 0.353430 0.851587
vt 0.341452 0.801172
vt 0.366467 0.891407
vt 0.275895 0.542759
vt 0.289795 0.653808
vt 0.294038 0.670398
vt 0.325511 0.738623
vt 0.280984 0.694703
vt 0.278598 0.676157
vt 0.301999 0.767952
vt 0.311296 0.835435
vt 0.317704 0.889355
vt 0.324583 0.931517
vt 0.270017 0.552777
vt 0.285658 0.955182
vt 0.283508 0.912041
vt 0.263754 0.558926
vt 0.266911 0.689873
vt 0.267531 0.709521
vt 0.277708 0.785826
vt 0.281312 0.856159
vt 0.253302 0.791733
vt 0.254244 0.714439
vt 0.252034 0.862952
vt 0.251029 0.919470
vt 0.250258 0.962818
vt 0.257336 0.560971
vt 0.255069 0.694448
vt 0.250991 0.558841
vt 0.243386 0.689720
vt 0.241134 0.709347
vt 0.229113 0.785498
vt 0.223005 0.855767
vt 0.218821 0.911607
vt 0.215138 0.954708
vt 0.205466 0.767301
vt 0.228220 0.694353
vt 0.193767 0.834643
vt 0.185441 0.888467
vt 0.177063 0.930528
vt 0.244946 0.552610
vt 0.232172 0.675854
vt 0.239421 0.542516
vt 0.221749 0.653363
vt 0.216058 0.669878
vt 0.183004 0.737664
vt 0.164838 0.799984
vt 0.151068 0.850228
vt 0.136617 0.889863
vt 0.137843 0.752716
vt 0.162798 0.697519
vt 0.117771 0.797619
vt 0.097231 0.833474
vt 0.234630 0.528938
vt 0.212442 0.623071
vt 0.205375 0.636843
vt 0.230777 0.512395
vt 0.204607 0.586108
vt 0.196504 0.596560
vt 0.146034 0.648313
vt 0.114899 0.694438
vt 0.088835 0.732334
vt 0.062718 0.763239
vt 0.097714 0.627446
vt 0.133474 0.591946
vt 0.067022 0.657058
vt 0.036562 0.682151
vt 0.228061 0.493521
vt 0.198630 0.543855
vt 0.189762 0.550519
vt 0.195031 0.497896
vt 0.226626 0.473076
vt 0.185702 0.500437
vt 0.125736 0.530563
vt 0.087082 0.554469
vt 0.053481 0.575066
vt 0.020165 0.593942
vt 0.048476 0.489635
vt 0.083494 0.478382
vt 0.013537 0.502135
vt 0.226379 0.451839
vt 0.194369 0.450079
vt 0.184939 0.448319
vt 0.123477 0.466567
vt 0.187578 0.396228
vt 0.196686 0.402289
vt 0.127178 0.402547
vt 0.087427 0.402237
vt 0.052320 0.404077
vt 0.016817 0.410137
vt 0.227338 0.430617
vt 0.030074 0.321516
vt 0.065044 0.321826
vt 0.229481 0.410204
vt 0.201918 0.356489
vt 0.193488 0.346318
vt 0.136402 0.341123
vt 0.098650 0.329086
vt 0.201927 0.300602
vt 0.209412 0.314530
vt 0.150719 0.284904
vt 0.116677 0.261850
vt 0.086203 0.245845
vt 0.052788 0.239298
vt 0.232868 0.391394
vt 0.086626 0.166652
vt 0.116277 0.179373
vt 0.237318 0.374945
vt 0.218607 0.277976
vt 0.212372 0.260800
vt 0.169195 0.236075
vt 0.141233 0.203313
vt 0.191083 0.196584
vt 0.224321 0.228359
vt 0.171638 0.156395
vt 0.154581 0.126233
vt 0.130730 0.108004
vt 0.242609 0.361486
vt 0.229022 0.248132
vt 0.248511 0.351518
vt 0.240251 0.226055
vt 0.237332 0.204538
vt 0.215399 0.167880
vt 0.204561 0.123033
vt 0.195662 0.089104
vt 0.179641 0.066665
vt 0.240399 0.150746
vt 0.250701 0.190174
vt 0.236236 0.103478
vt 0.233371 0.068138
vt 0.226766 0.043643
vt 0.254794 0.345408
vt 0.251943 0.212532
s 1
f 3/1/3 225/2/225 9/3/9 10/4/10
f 222/5/222 39/6/39 4/7/4
f 223/8/223 222/5/222 4/7/4 5/9/5
f 1/10/1 223/8/223 5/9/5 6/11/6
f 224/12/224 1/10/1 6/11/6 7/13/7
f 2/14/2 224/12/224 7/13/7 8/15/8
f 225/2/225 2/14/2 8/15/8 9/3/9
f 9/3/9 8/15/8 15/16/15 16/17/16
f 10/4/10 9/3/9 16/17/16 17/18/17
f 4/7/4 39/6/39 11/19/11
f 5/9/5 4/7/4 11/19/11 12/20/12
f 6/11/6 5/9/5 12/20/12 13/21/13
f 7/13/7 6/11/6 13/21/13 14/22/14
f 8/15/8 7/13/7 14/22/14 15/16/15
f 13/21/13 12/20/12 19/23/19 20/24/20
f 14/22/14 13/21/13 20/24/20 21/25/21
f 15/16/15 14/22/14 21/25/21 22/26/22
f 16/17/16 15/16/15 22/26/22 23/27/23
f 17/18/17 16/17/16 23/27/23 24/28/24
f 11/19/11 39/6/39 18/29/18
f 12/20/12 11/19/11 18/29/18 19/23/19
f 24/28/24 23/27/23 30/30/30 31/31/31
f 18/29/18 39/6/39 25/32/25
f 19/23/19 18/29/18 25/32/25 26/33/26
f 20/24/20 19/23/19 26/33/26 27/34/27
f 21/25/21 20/24/20 27/34/27 28/35/28
f 22/26/22 21/25/21 28/35/28 29/36/29
f 23/27/23 22/26/22 29/36/29 30/30/30
f 28/35/28 27/34/27 34/37/34 35/38/35
f 29/36/29 28/35/28 35/38/35 36/39/36
f 30/30/30 29/36/29 36/39/36 37/40/37
f 31/31/31 30/30/30 37/40/37 38/41/38
f 25/32/25 39/6/39 32/42/32
f 26/33/26 25/32/25 32/42/32 33/43/33
f 27/34/27 26/33/26 33/43/33 34/37/34
f 32/42/32 39/6/39 40/44/40
f 33/43/33 32/42/32 40/44/40 41/45/41
f 34/37/34 33/43/33 41/45/41 42/46/42
f 35/38/35 34/37/34 42/46/42 43/47/43
f 36/39/36 35/38/35 43/47/43 44/48/44
f 37/40/37 36/39/36 44/48/44 45/49/45
f 38/41/38 37/40/37 45/49/45 46/50/46
f 44/48/44 43/47/43 50/51/50 51/52/51
f 45/49/45 44/48/44 51/52/51 52/53/52
f 46/50/46 45/49/45 52/53/52 53/54/53
f 40/44/40 39/6/39 47/55/47
f 41/45/41 40/44/40 47/55/47 48/56/48
f 42/46/42 41/45/41 48/56/48 49/57/49
f 43/47/43 42/46/42 49/57/49 50/51/50
f 47/55/47 39/6/39 54/58/54
f 48/56/48 47/55/47 54/58/54 55/59/55
f 49/57/49 48/56/48 55/59/55 56/60/56
f 50/51/50 49/57/49 56/60/56 57/61/57
f 51/52/51 50/51/50 57/61/57 58/62/58
f 52/53/52 51/52/51 58/62/58 59/63/59
f 53/54/53 52/53/52 59/63/59 60/64/60
f 58/62/58 57/61/57 64/65/64 65/66/65
f 59/63/59 58/62/58 65/66/65 66/67/66
f 60/64/60 59/63/59 66/67/66 67/68/67
f 54/58/54 39/6/39 61/69/61
f 55/59/55 54/58/54 61/69/61 62/70/62
f 56/60/56 55/59/55 62/70/62 63/71/63
f 57/61/57 56/60/56 63/71/63 64/65/64
f 62/70/62 61/69/61 68/72/68 69/73/69
f 63/71/63 62/70/62 69/73/69 70/74/70
f 64/65/64 63/71/63 70/74/70 71/75/71
f 65/66/65 64/65/64 71/75/71 72/76/72
f 66/67/66 65/66/65 72/76/72 73/77/73
f 67/68/67 66/67/66 73/77/73 74/78/74
f 61/69/61 39/6/39 68/72/68
f 73/77/73 72/76/72 79/79/79 80/80/80
f 74/78/74 73/77/73 80/80/80 81/81/81
f 68/72/68 39/6/39 75/82/75
f 69/73/69 68/72/68 75/82/75 76/83/76
f 70/74/70 69/73/69 76/83/76 77/84/77
f 71/75/71 70/74/70 77/84/77 78/85/78
f 72/76/72 71/75/71 78/85/78 79/79/79
f 76/83/76 75/82/75 82/86/82 83/87/83
f 77/84/77 76/83/76 83/87/83 84/88/84
f 78/85/78 77/84/77 84/88/84 85/89/85
f 79/79/79 78/85/78 85/89/85 86/90/86
f 80/80/80 79/79/79 86/90/86 87/91/87
f 81/81/81 80/80/80 87/91/87 88/92/88
f 75/82/75 39/6/39 82/86/82
f 87/91/87 86/90/86 93/93/93 94/94/94
f 88/92/88 87/91/87 94/94/94 95/95/95
f 82/86/82 39/6/39 89/96/89
f 83/87/83 82/86/82 89/96/89 90/97/90
f 84/88/84 83/87/83 90/97/90 91/98/91
f 85/89/85 84/88/84 91/98/91 92/99/92
f 86/90/86 85/89/85 92/99/92 93/93/93
f 91/98/91 90/97/90 97/100/97 98/101/98
f 92/99/92 91/98/91 98/101/98 99/102/99
f 93/93/93 92/99/92 99/102/99 100/103/100
f 94/94/94 93/93/93 100/103/100 101/104/101
f 95/95/95 94/94/94 101/104/101 102/105/102
f 89/96/89 39/6/39 96/106/96
f 90/97/90 89/96/89 96/106/96 97/100/97
f 102/105/102 101/104/101 108/107/108 109/108/109
f 96/106/96 39/6/39 103/109/103
f 97/100/97 96/106/96 103/109/103 104/110/104
f 98/101/98 97/100/97 104/110/104 105/111/105
f 99/102/99 98/101/98 105/111/105 106/112/106
f 100/103/100 99/102/99 106/112/106 107/113/107
f 101/104/101 100/103/100 107/113/107 108/107/108
f 106/112/106 105/111/105 112/114/112 113/115/113
f 107/113/107 106/112/106 113/115/113 114/116/114
f 108/107/108 107/113/107 114/116/114 115/117/115
f 109/108/109 108/107/108 115/117/115 116/118/116
f 103/109/103 39/6/39 110/119/110
f 104/110/104 103/109/103 110/119/110 111/120/111
f 105/111/105 104/110/104 111/120/111 112/114/112
f 110/119/110 39/6/39 117/121/117
f 111/120/111 110/119/110 117/121/117 118/122/118
f 112/114/112 111/120/111 118/122/118 119/123/119
f 113/115/113 112/114/112 119/123/119 120/124/120
f 114/116/114 113/115/113 120/124/120 121/125/121
f 115/117/115 114/116/114 121/125/121 122/126/122
f 116/118/116 115/117/115 122/126/122 123/127/123
f 120/124/120 119/123/119 126/128/126 127/129/127
f 121/125/121 120/124/120 127/129/127 128/130/128
f 122/126/122 121/125/121 128/130/128 129/131/129
f 123/127/123 122/126/122 129/131/129 130/132/130
f 117/121/117 39/6/39 124/133/124
f 118/122/118 117/121/117 124/133/124 125/134/125
f 119/123/119 118/122/118 125/134/125 126/128/126
f 124/133/124 39/6/39 131/135/131
f 125/134/125 124/133/124 131/135/131 132/136/132
f 126/128/126 125/134/125 132/136/132 133/137/133
f 127/129/127 126/128/126 133/137/133 134/138/134
f 128/130/128 127/129/127 134/138/134 135/139/135
f 129/131/129 128/130/128 135/139/135 136/140/136
f 130/132/130 129/131/129 136/140/136 137/141/137
f 135/139/135 134/138/134 141/142/141 142/143/142
f 136/140/136 135/139/135 142/143/142 143/144/143
f 137/141/137 136/140/136 143/144/143 144/145/144
f 131/135/131 39/6/39 138/146/138
f 132/136/132 131/135/131 138/146/138 139/147/139
f 133/137/133 132/136/132 139/147/139 140/148/140
f 134/138/134 133/137/133 140/148/140 141/142/141
f 138/146/138 39/6/39 145/149/145
f 139/147/139 138/146/138 145/149/145 146/150/146
f 140/148/140 139/147/139 146/150/146 147/151/147
f 141/142/141 140/148/140 147/151/147 148/152/148
f 142/143/142 141/142/141 148/152/148 149/153/149
f 143/144/143 142/143/142 149/153/149 150/154/150
f 144/145/144 143/144/143 150/154/150 151/155/151
f 149/153/149 148/152/148 155/156/155 156/157/156
f 150/154/150 149/153/149 156/157/156 157/158/157
f 151/155/151 150/154/150 157/158/157 158/159/158
f 145/149/145 39/6/39 152/160/152
f 146/150/146 145/149/145 152/160/152 153/161/153
f 147/151/147 146/150/146 153/161/153 154/162/154
f 148/152/148 147/151/147 154/162/154 155/156/155
f 153/161/153 152/160/152 159/163/159 160/164/160
f 154/162/154 153/161/153 160/164/160 161/165/161
f 155/156/155 154/162/154 161/165/161 162/166/162
f 156/157/156 155/156/155 162/166/162 163/167/163
f 157/158/157 156/157/156 163/167/163 164/168/164
f 158/159/158 157/158/157 164/168/164 165/169/165
f 152/160/152 39/6/39 159/163/159
f 164/168/164 163/167/163 170/170/170 171/171/171
f 165/169/165 164/168/164 171/171/171 172/172/172
f 159/163/159 39/6/39 166/173/166
f 160/164/160 159/163/159 166/173/166 167/174/167
f 161/165/161 160/164/160 167/174/167 168/175/168
f 162/166/162 161/165/161 168/175/168 169/176/169
f 163/167/163 162/166/162 169/176/169 170/170/170
f 168/175/168 167/174/167 174/177/174 175/178/175
f 169/176/169 168/175/168 175/178/175 176/179/176
f 170/170/170 169/176/169 176/179/176 177/180/177
f 171/171/171 170/170/170 177/180/177 178/181/178
f 172/172/172 171/171/171 178/181/178 179/182/179
f 166/173/166 39/6/39 173/183/173
f 167/174/167 166/173/166 173/183/173 174/177/174
f 179/182/179 178/181/178 185/184/185 186/185/186
f 173/183/173 39/6/39 180/186/180
f 174/177/174 173/183/173 180/186/180 181/187/181
f 175/178/175 174/177/174 181/187/181 182/188/182
f 176/179/176 175/178/175 182/188/182 183/189/183
f 177/180/177 176/179/176 183/189/183 184/190/184
f 178/181/178 177/180/177 184/190/184 185/184/185
f 182/188/182 181/187/181 188/191/188 189/192/189
f 183/189/183 182/188/182 189/192/189 190/193/190
f 184/190/184 183/189/183 190/193/190 191/194/191
f 185/184/185 184/190/184 191/194/191 192/195/192
f 186/185/186 185/184/185 192/195/192 193/196/193
f 180/186/180 39/6/39 187/197/187
f 181/187/181 180/186/180 187/197/187 188/191/188
f 193/196/193 192/195/192 199/198/199 200/199/200
f 187/197/187 39/6/39 194/200/194
f 188/191/188 187/197/187 194/200/194 195/201/195
f 189/192/189 188/191/188 195/201/195 196/202/196
f 190/193/190 189/192/189 196/202/196 197/203/197
f 191/194/191 190/193/190 197/203/197 198/204/198
f 192/195/192 191/194/191 198/204/198 199/198/199
f 197/203/197 196/202/196 203/205/203 204/206/204
f 198/204/198 197/203/197 204/206/204 205/207/205
f 199/198/199 198/204/198 205/207/205 206/208/206
f 200/199/200 199/198/199 206/208/206 207/209/207
f 194/200/194 39/6/39 201/210/201
f 195/201/195 194/200/194 201/210/201 202/211/202
f 196/202/196 195/201/195 202/211/202 203/205/203
f 201/210/201 39/6/39 208/212/208
f 202/211/202 201/210/201 208/212/208 209/213/209
f 203/205/203 202/211/202 209/213/209 210/214/210
f 204/206/204 203/205/203 210/214/210 211/215/211
f 205/207/205 204/206/204 211/215/211 212/216/212
f 206/208/206 205/207/205 212/216/212 213/217/213
f 207/209/207 206/208/206 213/217/213 214/218/214
f 211/215/211 210/214/210 217/219/217 218/220/218
f 212/216/212 211/215/211 218/220/218 219/221/219
f 213/217/213 212/216/212 219/221/219 220/222/220
f 214/218/214 213/217/213 220/222/220 221/223/221
f 208/212/208 39/6/39 215/224/215
f 209/213/209 208/212/208 215/224/215 216/225/216
f 210/214/210 209/213/209 216/225/216 217/219/217
f 215/224/215 39/6/39 222/5/222
f 216/225/216 215/224/215 222/5/222 223/8/223
f 217/219/217 216/225/216 223/8/223 1/10/1
f 218/220/218 217/219/217 1/10/1 224/12/224
f 219/221/219 218/220/218 224/12/224 2/14/2
f 220/222/220 219/221/219 2/14/2 225/2/225
f 221/223/221 220/222/220 225/2/225 3/1/3
f 228/226/3 235/227/221 234/228/220 450/229/225
f 447/230/222 229/231/227 264/232/39
f 448/233/349 230/234/228 229/231/227 447/230/222
f 226/235/226 231/236/229 230/234/228 448/233/349
f 449/237/350 232/238/230 231/236/229 226/235/226
f 227/239/2 233/240/219 232/238/230 449/237/350
f 450/229/225 234/228/220 233/240/219 227/239/2
f 234/228/220 241/241/213 240/242/212 233/240/219
f 235/227/221 242/243/214 241/241/213 234/228/220
f 229/231/227 236/244/231 264/232/39
f 230/234/228 237/245/232 236/244/231 229/231/227
f 231/236/229 238/246/233 237/245/232 230/234/228
f 232/238/230 239/247/234 238/246/233 231/236/229
f 233/240/219 240/242/212 239/247/234 232/238/230
f 238/246/233 245/248/237 244/249/236 237/245/232
f 239/247/234 246/250/238 245/248/237 238/246/233
f 240/242/212 247/251/205 246/250/238 239/247/234
f 241/241/213 248/252/206 247/251/205 240/242/212
f 242/243/214 249/253/207 248/252/206 241/241/213
f 236/244/231 243/254/235 264/232/39
f 237/245/232 244/249/236 243/254/235 236/244/231
f 249/253/207 256/255/200 255/256/199 248/252/206
f 243/254/235 250/257/239 264/232/39
f 244/249/236 251/258/240 250/257/239 243/254/235
f 245/248/237 252/259/241 251/258/240 244/249/236
f 246/250/238 253/260/242 252/259/241 245/248/237
f 247/251/205 254/261/198 253/260/242 246/250/238
f 248/252/206 255/256/199 254/261/198 247/251/205
f 253/260/242 260/262/246 259/263/245 252/259/241
f 254/261/198 261/264/191 260/262/246 253/260/242
f 255/256/199 262/265/192 261/264/191 254/261/198
f 256/255/200 263/266/193 262/265/192 255/256/199
f 250/257/239 257/267/243 264/232/39
f 251/258/240 258/268/244 257/267/243 250/257/239
f 252/259/241 259/263/245 258/268/244 251/258/240
f 257/267/243 265/269/247 264/232/39
f 258/268/244 266/270/248 265/269/247 257/267/243
f 259/263/245 267/271/249 266/270/248 258/268/244
f 260/262/246 268/272/250 267/271/249 259/263/245
f 261/264/191 269/273/184 268/272/250 260/262/246
f 262/265/192 270/274/185 269/273/184 261/264/191
f 263/266/193 271/275/186 270/274/185 262/265/192
f 269/273/184 276/276/177 275/277/254 268/272/250
f 270/274/185 277/278/178 276/276/177 269/273/184
f 271/275/186 278/279/179 277/278/178 270/274/185
f 265/269/247 272/280/251 264/232/39
f 266/270/248 273/281/252 272/280/251 265/269/247
f 267/271/249 274/282/253 273/281/252 266/270/248
f 268/272/250 275/277/254 274/282/253 267/271/249
f 272/280/251 279/283/255 264/232/39
f 273/281/252 280/284/256 279/283/255 272/280/251
f 274/282/253 281/285/257 280/284/256 273/281/252
f 275/277/254 282/286/258 281/285/257 274/282/253
f 276/276/177 283/287/170 282/286/258 275/277/254
f 277/278/178 284/288/171 283/287/170 276/276/177
f 278/279/179 285/289/172 284/288/171 277/278/178
f 283/287/170 290/290/163 289/291/262 282/286/258
f 284/288/171 291/292/164 290/290/163 283/287/170
f 285/289/172 292/293/165 291/292/164 284/288/171
f 279/283/255 286/294/259 264/232/39
f 280/284/256 287/295/260 286/294/259 279/283/255
f 281/285/257 288/296/261 287/295/260 280/284/256
f 282/286/258 289/291/262 288/296/261 281/285/257
f 287/295/260 294/297/264 293/298/263 286/294/259
f 288/296/261 295/299/265 294/297/264 287/295/260
f 289/291/262 296/300/266 295/299/265 288/296/261
f 290/290/163 297/301/156 296/300/266 289/291/262
f 291/292/164 298/302/157 297/301/156 290/290/163
f 292/293/165 299/303/158 298/302/157 291/292/164
f 286/294/259 293/298/263 264/232/39
f 298/302/157 305/304/150 304/305/149 297/301/156
f 299/303/158 306/306/151 305/304/150 298/302/157
f 293/298/263 300/307/267 264/232/39
f 294/297/264 301/308/268 300/307/267 293/298/263
f 295/299/265 302/309/269 301/308/268 294/297/264
f 296/300/266 303/310/270 302/309/269 295/299/265
f 297/301/156 304/305/149 303/310/270 296/300/266
f 301/308/268 308/311/272 307/312/271 300/307/267
f 302/309/269 309/313/273 308/311/272 301/308/268
f 303/310/270 310/314/274 309/313/273 302/309/269
f 304/305/149 311/315/142 310/314/274 303/310/270
f 305/304/150 312/316/143 311/315/142 304/305/149
f 306/306/151 313/317/144 312/316/143 305/304/150
f 300/307/267 307/312/271 264/232/39
f 312/316/143 319/318/136 318/319/135 311/315/142
f 313/317/144 320/320/137 319/318/136 312/316/143
f 307/312/271 314/321/275 264/232/39
f 308/311/272 315/322/276 314/321/275 307/312/271
f 309/313/273 316/323/277 315/322/276 308/311/272
f 310/314/274 317/324/278 316/323/277 309/313/273
f 311/315/142 318/319/135 317/324/278 310/314/274
f 316/323/277 323/325/281 322/326/280 315/322/276
f 317/324/278 324/327/282 323/325/281 316/323/277
f 318/319/135 325/328/128 324/327/282 317/324/278
f 319/318/136 326/329/129 325/328/128 318/319/135
f 320/320/137 327/330/130 326/329/129 319/318/136
f 314/321/275 321/331/279 264/232/39
f 315/322/276 322/326/280 321/331/279 314/321/275
f 327/330/130 334/332/123 333/333/122 326/329/129
f 321/331/279 328/334/283 264/232/39
f 322/326/280 329/335/284 328/334/283 321/331/279
f 323/325/281 330/336/285 329/335/284 322/326/280
f 324/327/282 331/337/286 330/336/285 323/325/281
f 325/328/128 332/338/121 331/337/286 324/327/282
f 326/329/129 333/333/122 332/338/121 325/328/128
f 331/337/286 338/339/113 337/340/288 330/336/285
f 332/338/121 339/341/114 338/339/113 331/337/286
f 333/333/122 340/342/115 339/341/114 332/338/121
f 334/332/123 341/343/116 340/342/115 333/333/122
f 328/334/283 335/344/110 264/232/39
f 329/335/284 336/345/287 335/344/110 328/334/283
f 330/336/285 337/340/288 336/345/287 329/335/284
f 335/344/110 342/346/289 264/232/39
f 336/345/287 343/347/290 342/346/289 335/344/110
f 337/340/288 344/348/291 343/347/290 336/345/287
f 338/339/113 345/349/292 344/348/291 337/340/288
f 339/341/114 346/350/107 345/349/292 338/339/113
f 340/342/115 347/351/108 346/350/107 339/341/114
f 341/343/116 348/352/109 347/351/108 340/342/115
f 345/349/292 352/353/296 351/354/295 344/348/291
f 346/350/107 353/355/100 352/353/296 345/349/292
f 347/351/108 354/356/101 353/355/100 346/350/107
f 348/352/109 355/357/102 354/356/101 347/351/108
f 342/346/289 349/358/293 264/232/39
f 343/347/290 350/359/294 349/358/293 342/346/289
f 344/348/291 351/354/295 350/359/294 343/347/290
f 349/358/293 356/360/297 264/232/39
f 350/359/294 357/361/298 356/360/297 349/358/293
f 351/354/295 358/362/299 357/361/298 350/359/294
f 352/353/296 359/363/300 358/362/299 351/354/295
f 353/355/100 360/364/93 359/363/300 352/353/296
f 354/356/101 361/365/94 360/364/93 353/355/100
f 355/357/102 362/366/95 361/365/94 354/356/101
f 360/364/93 367/367/86 366/368/304 359/363/300
f 361/365/94 368/369/87 367/367/86 360/364/93
f 362/366/95 369/370/88 368/369/87 361/365/94
f 356/360/297 363/371/301 264/232/39
f 357/361/298 364/372/302 363/371/301 356/360/297
f 358/362/299 365/373/303 364/372/302 357/361/298
f 359/363/300 366/368/304 365/373/303 358/362/299
f 363/371/301 370/374/305 264/232/39
f 364/372/302 371/375/306 370/374/305 363/371/301
f 365/373/303 372/376/307 371/375/306 364/372/302
f 366/368/304 373/377/308 372/376/307 365/373/303
f 367/367/86 374/378/79 373/377/308 366/368/304
f 368/369/87 375/379/80 374/378/79 367/367/86
f 369/370/88 376/380/81 375/379/80 368/369/87
f 374/378/79 381/381/72 380/382/312 373/377/308
f 375/379/80 382/383/73 381/381/72 374/378/79
f 376/380/81 383/384/74 382/383/73 375/379/80
f 370/374/305 377/385/309 264/232/39
f 371/375/306 378/386/310 377/385/309 370/374/305
f 372/376/307 379/387/311 378/386/310 371/375/306
f 373/377/308 380/382/312 379/387/311 372/376/307
f 378/386/310 385/388/314 384/389/313 377/385/309
f 379/387/311 386/390/315 385/388/314 378/386/310
f 380/382/312 387/391/316 386/390/315 379/387/311
f 381/381/72 388/392/65 387/391/316 380/382/312
f 382/383/73 389/393/66 388/392/65 381/381/72
f 383/384/74 390/394/67 389/393/66 382/383/73
f 377/385/309 384/389/313 264/232/39
f 389/393/66 396/395/59 395/396/58 388/392/65
f 390/394/67 397/397/60 396/395/59 389/393/66
f 384/389/313 391/398/317 264/232/39
f 385/388/314 392/399/318 391/398/317 384/389/313
f 386/390/315 393/400/319 392/399/318 385/388/314
f 387/391/316 394/401/320 393/400/319 386/390/315
f 388/392/65 395/396/58 394/401/320 387/391/316
f 393/400/319 400/402/323 399/403/322 392/399/318
f 394/401/320 401/404/324 400/402/323 393/400/319
f 395/396/58 402/405/51 401/404/324 394/401/320
f 396/395/59 403/406/52 402/405/51 395/396/58
f 397/397/60 404/407/53 403/406/52 396/395/59
f 391/398/317 398/408/321 264/232/39
f 392/399/318 399/403/322 398/408/321 391/398/317
f 404/407/53 411/409/46 410/410/45 403/406/52
f 398/408/321 405/411/325 264/232/39
f 399/403/322 406/412/326 405/411/325 398/408/321
f 400/402/323 407/413/327 406/412/326 399/403/322
f 401/404/324 408/414/328 407/413/327 400/402/323
f 402/405/51 409/415/44 408/414/328 401/404/324
f 403/406/52 410/410/45 409/415/44 402/405/51
f 407/413/327 414/416/331 413/417/330 406/412/326
f 408/414/328 415/418/332 414/416/331 407/413/327
f 409/415/44 416/419/36 415/418/332 408/414/328
f 410/410/45 417/420/37 416/419/36 409/415/44
f 411/409/46 418/421/38 417/420/37 410/410/45
f 405/411/325 412/422/329 264/232/39
f 406/412/326 413/417/330 412/422/329 405/411/325
f 418/421/38 425/423/31 424/424/30 417/420/37
f 412/422/329 419/425/333 264/232/39
f 413/417/330 420/426/334 419/425/333 412/422/329
f 414/416/331 421/427/335 420/426/334 413/417/330
f 415/418/332 422/428/336 421/427/335 414/416/331
f 416/419/36 423/429/29 422/428/336 415/418/332
f 417/420/37 424/424/30 423/429/29 416/419/36
f 422/428/336 429/430/340 428/431/339 421/427/335
f 423/429/29 430/432/22 429/430/340 422/428/336
f 424/424/30 431/433/23 430/432/22 423/429/29
f 425/423/31 432/434/24 431/433/23 424/424/30
f 419/425/333 426/435/337 264/232/39
f 420/426/334 427/436/338 426/435/337 419/425/333
f 421/427/335 428/431/339 427/436/338 420/426/334
f 426/435/337 433/437/341 264/232/39
f 427/436/338 434/438/342 433/437/341 426/435/337
f 428/431/339 435/439/343 434/438/342 427/436/338
f 429/430/340 436/440/344 435/439/343 428/431/339
f 430/432/22 437/441/15 436/440/344 429/430/340
f 431/433/23 438/442/16 437/441/15 430/432/22
f 432/434/24 439/443/17 438/442/16 431/433/23
f 436/440/344 443/444/348 442/445/347 435/439/343
f 437/441/15 444/446/8 443/444/348 436/440/344
f 438/442/16 445/447/9 444/446/8 437/441/15
f 439/443/17 446/448/10 445/447/9 438/442/16
f 433/437/341 440/449/345 264/232/39
f 434/438/342 441/450/346 440/449/345 433/437/341
f 435/439/343 442/445/347 441/450/346 434/438/342
f 440/449/345 447/230/222 264/232/39
f 441/450/346 448/233/349 447/230/222 440/449/345
f 442/445/347 226/235/226 448/233/349 441/450/346
f 443/444/348 449/237/350 226/235/226 442/445/347
f 444/446/8 227/239/2 449/237/350 443/444/348
f 445/447/9 450/229/225 227/239/2 444/446/8
f 446/448/10 228/226/3 450/229/225 445/447/9
