# Blender 4.3.2
# www.blender.org
mtllib exit.mtl
o Cube
v 0.203788 1.000000 -1.000000
v 0.203788 -1.000000 -1.000000
v 0.203788 1.000000 1.000000
v 0.203788 -1.000000 1.000000
v -0.203788 1.000000 -1.000000
v -0.203788 -1.000000 -1.000000
v -0.203788 1.000000 1.000000
v -0.203788 -1.000000 1.000000
v -0.203788 -0.233022 0.000000
v 0.203788 0.233022 0.000000
v -0.203788 0.233022 0.000000
v 0.203788 -0.233022 0.000000
v 0.203788 0.000000 -0.233022
v -0.203788 0.000000 0.233022
v 0.203788 0.000000 0.233022
v -0.203788 0.000000 -0.233022
v 0.203788 0.000000 0.000000
v -0.203788 0.000000 0.000000
vn -0.0000 0.7935 -0.6086
vn -0.0000 -0.6086 0.7935
vn -1.0000 -0.0000 -0.0000
vn -0.0000 -0.7935 -0.6086
vn 1.0000 -0.0000 -0.0000
vn -0.0000 -0.6086 -0.7935
vn -0.0000 -0.7935 0.6086
vn -0.0000 0.7935 0.6086
vn -0.0000 0.6086 -0.7935
vn -0.0000 0.6086 0.7935
vt 0.625000 0.625000
vt 0.875000 0.625000
vt 0.875000 0.750000
vt 0.625000 0.750000
vt 0.500000 0.750000
vt 0.625000 1.000000
vt 0.500000 1.000000
vt 0.500000 0.125000
vt 0.625000 0.125000
vt 0.625000 0.250000
vt 0.500000 0.250000
vt 0.125000 0.625000
vt 0.375000 0.625000
vt 0.375000 0.750000
vt 0.125000 0.750000
vt 0.500000 0.625000
vt 0.625000 0.500000
vt 0.500000 0.500000
vt 0.125000 0.500000
vt 0.375000 0.500000
vt 0.500000 0.000000
vt 0.625000 0.000000
vt 0.875000 0.500000
vt 0.375000 0.000000
vt 0.375000 0.125000
vt 0.375000 0.250000
vt 0.375000 1.000000
s 0
usemtl Material
f 10/1/1 11/2/1 7/3/1 3/4/1
f 15/5/2 3/4/2 7/6/2 14/7/2
f 18/8/3 11/9/3 5/10/3 16/11/3
f 9/12/4 12/13/4 4/14/4 8/15/4
f 17/16/5 10/1/5 3/4/5 15/5/5
f 16/11/6 5/10/6 1/17/6 13/18/6
f 13/18/5 1/17/5 10/1/5 17/16/5
f 6/19/7 2/20/7 12/13/7 9/12/7
f 14/21/3 7/22/3 11/9/3 18/8/3
f 1/17/8 5/23/8 11/2/8 10/1/8
f 8/24/3 14/21/3 18/8/3 9/25/3
f 2/20/5 13/18/5 17/16/5 12/13/5
f 6/26/9 16/11/9 13/18/9 2/20/9
f 12/13/5 17/16/5 15/5/5 4/14/5
f 9/25/3 18/8/3 16/11/3 6/26/3
f 4/14/10 15/5/10 14/7/10 8/27/10
